<?xml version="1.0" encoding="UTF-8" standalone="no"?>
<!-- Creator: CorelDRAW -->

<svg
   xmlns:dc="http://purl.org/dc/elements/1.1/"
   xmlns:cc="http://creativecommons.org/ns#"
   xmlns:rdf="http://www.w3.org/1999/02/22-rdf-syntax-ns#"
   xmlns:svg="http://www.w3.org/2000/svg"
   xmlns="http://www.w3.org/2000/svg"
   xmlns:sodipodi="http://sodipodi.sourceforge.net/DTD/sodipodi-0.dtd"
   xmlns:inkscape="http://www.inkscape.org/namespaces/inkscape"
   xml:space="preserve"
   width="6in"
   height="6in"
   style="shape-rendering:geometricPrecision; text-rendering:geometricPrecision; image-rendering:optimizeQuality; fill-rule:evenodd; clip-rule:evenodd"
   viewBox="0 0 6 6"
   version="1.1"
   id="svg646"
   sodipodi:docname="pixel_guard_LaserCut.svg"
   inkscape:version="0.92.2 5c3e80d, 2017-08-06"><metadata
     id="metadata650"><rdf:RDF><cc:Work
         rdf:about=""><dc:format>image/svg+xml</dc:format><dc:type
           rdf:resource="http://purl.org/dc/dcmitype/StillImage" /></cc:Work></rdf:RDF></metadata><sodipodi:namedview
     pagecolor="#ffffff"
     bordercolor="#666666"
     borderopacity="1"
     objecttolerance="10"
     gridtolerance="10"
     guidetolerance="10"
     inkscape:pageopacity="0"
     inkscape:pageshadow="2"
     inkscape:window-width="1433"
     inkscape:window-height="791"
     id="namedview648"
     showgrid="false"
     inkscape:measure-start="45.75,410.5"
     inkscape:measure-end="137.25,319"
     inkscape:zoom="1"
     inkscape:cx="98.58062"
     inkscape:cy="214.83333"
     inkscape:window-x="0"
     inkscape:window-y="0"
     inkscape:window-maximized="0"
     inkscape:current-layer="svg646" /><defs
     id="defs576"><style
       type="text/css"
       id="style574"><![CDATA[
    .str1 {stroke:#1F1A17;stroke-width:0.003;stroke-linecap:round;stroke-linejoin:round}
    .str0 {stroke:black;stroke-width:0.003;stroke-linecap:round;stroke-linejoin:round}
    .fil1 {fill:none}
    .fil0 {fill:none;fill-rule:nonzero}
   ]]></style></defs><rect
     style="opacity:1;fill:none;stroke:#0000ff;stroke-width:0.00787306;stroke-linecap:round;stroke-linejoin:round;stroke-miterlimit:4;stroke-dasharray:none;stroke-opacity:1"
     id="rect1180"
     width="4.4015756"
     height="4.4015756"
     x="0.31889716"
     y="1.2795273" /><path
     style="fill:none;fill-rule:nonzero;stroke:#0000ff;stroke-width:0.00787402;stroke-linecap:round;stroke-linejoin:round;stroke-miterlimit:4;stroke-dasharray:none;stroke-opacity:1"
     inkscape:connector-curvature="0"
     d="M 0.81494772,5.2110392 H 1.0748162 c 0.014311,0 0.025987,-0.011676 0.025987,-0.025987 V 4.9251837 c 0,-0.014311 -0.011676,-0.025987 -0.025987,-0.025987 H 0.81494772 c -0.014312,0 -0.025987,0.011676 -0.025987,0.025987 v 0.2598687 c 0,0.014311 0.011675,0.025987 0.025987,0.025987 z"
     class="fil0 str0"
     id="path1594" /><path
     style="fill:none;fill-rule:nonzero;stroke:#0000ff;stroke-width:0.00787402;stroke-linecap:round;stroke-linejoin:round;stroke-miterlimit:4;stroke-dasharray:none;stroke-opacity:1"
     inkscape:connector-curvature="0"
     d="M 1.2086485,5.2110392 H 1.468517 c 0.014311,0 0.025987,-0.011676 0.025987,-0.025987 V 4.9251838 c 0,-0.014311 -0.011675,-0.025987 -0.025987,-0.025987 H 1.2086485 c -0.014312,0 -0.025987,0.011676 -0.025987,0.025987 v 0.2598685 c 0,0.014311 0.011675,0.025987 0.025987,0.025987 z"
     class="fil0 str0"
     id="path1596" /><path
     id="path1598"
     class="fil0 str0"
     d="m 1.6023493,5.2110392 h 0.2598685 c 0.014311,0 0.025987,-0.011676 0.025987,-0.025987 V 4.9251837 c 0,-0.014311 -0.011676,-0.025987 -0.025987,-0.025987 H 1.6023493 c -0.014312,0 -0.025987,0.011676 -0.025987,0.025987 v 0.2598687 c 0,0.014311 0.011675,0.025987 0.025987,0.025987 z"
     inkscape:connector-curvature="0"
     style="fill:none;fill-rule:nonzero;stroke:#0000ff;stroke-width:0.00787402;stroke-linecap:round;stroke-linejoin:round;stroke-miterlimit:4;stroke-dasharray:none;stroke-opacity:1" /><path
     style="fill:none;fill-rule:nonzero;stroke:#0000ff;stroke-width:0.00787402;stroke-linecap:round;stroke-linejoin:round;stroke-miterlimit:4;stroke-dasharray:none;stroke-opacity:1"
     inkscape:connector-curvature="0"
     d="m 1.99605,5.2110392 h 0.2598685 c 0.014312,0 0.025987,-0.011676 0.025987,-0.025987 V 4.9251838 c 0,-0.014311 -0.011675,-0.025987 -0.025987,-0.025987 H 1.99605 c -0.014312,0 -0.025987,0.011676 -0.025987,0.025987 v 0.2598685 c 0,0.014311 0.011675,0.025987 0.025987,0.025987 z"
     class="fil0 str0"
     id="path1600" /><path
     id="path1602"
     class="fil0 str0"
     d="m 2.3897508,5.2110392 h 0.2598686 c 0.014311,0 0.025987,-0.011676 0.025987,-0.025987 V 4.9251837 c 0,-0.014311 -0.011676,-0.025987 -0.025987,-0.025987 H 2.3897508 c -0.014311,0 -0.025987,0.011676 -0.025987,0.025987 v 0.2598687 c 0,0.014311 0.011675,0.025987 0.025987,0.025987 z"
     inkscape:connector-curvature="0"
     style="fill:none;fill-rule:nonzero;stroke:#0000ff;stroke-width:0.00787402;stroke-linecap:round;stroke-linejoin:round;stroke-miterlimit:4;stroke-dasharray:none;stroke-opacity:1" /><path
     id="path1604"
     class="fil0 str0"
     d="m 2.7834517,5.2110392 h 0.2598685 c 0.014311,0 0.025987,-0.011676 0.025987,-0.025987 V 4.9251838 c 0,-0.014311 -0.011675,-0.025987 -0.025987,-0.025987 H 2.7834517 c -0.014312,0 -0.025987,0.011676 -0.025987,0.025987 v 0.2598685 c 0,0.014311 0.011675,0.025987 0.025987,0.025987 z"
     inkscape:connector-curvature="0"
     style="fill:none;fill-rule:nonzero;stroke:#0000ff;stroke-width:0.00787402;stroke-linecap:round;stroke-linejoin:round;stroke-miterlimit:4;stroke-dasharray:none;stroke-opacity:1" /><path
     style="fill:none;fill-rule:nonzero;stroke:#0000ff;stroke-width:0.00787402;stroke-linecap:round;stroke-linejoin:round;stroke-miterlimit:4;stroke-dasharray:none;stroke-opacity:1"
     inkscape:connector-curvature="0"
     d="M 3.1771525,5.2110392 H 3.437021 c 0.014311,0 0.025987,-0.011676 0.025987,-0.025987 V 4.9251837 c 0,-0.014311 -0.011676,-0.025987 -0.025987,-0.025987 H 3.1771525 c -0.014312,0 -0.025987,0.011676 -0.025987,0.025987 v 0.2598687 c 0,0.014311 0.011675,0.025987 0.025987,0.025987 z"
     class="fil0 str0"
     id="path1606" /><path
     style="fill:none;fill-rule:nonzero;stroke:#0000ff;stroke-width:0.00787402;stroke-linecap:round;stroke-linejoin:round;stroke-miterlimit:4;stroke-dasharray:none;stroke-opacity:1"
     inkscape:connector-curvature="0"
     d="m 3.5708533,5.2110392 h 0.2598686 c 0.014311,0 0.025987,-0.011676 0.025987,-0.025987 V 4.9251837 c 0,-0.014311 -0.011676,-0.025987 -0.025987,-0.025987 H 3.5708533 c -0.014311,0 -0.025987,0.011676 -0.025987,0.025987 v 0.2598687 c 0,0.014311 0.011675,0.025987 0.025987,0.025987 z"
     class="fil0 str0"
     id="path1608" /><path
     style="fill:none;fill-rule:nonzero;stroke:#0000ff;stroke-width:0.00787402;stroke-linecap:round;stroke-linejoin:round;stroke-miterlimit:4;stroke-dasharray:none;stroke-opacity:1"
     inkscape:connector-curvature="0"
     d="m 3.9645542,5.2110392 h 0.2598685 c 0.014311,0 0.025987,-0.011676 0.025987,-0.025987 V 4.9251838 c 0,-0.014311 -0.011675,-0.025987 -0.025987,-0.025987 H 3.9645542 c -0.014312,0 -0.025987,0.011676 -0.025987,0.025987 v 0.2598685 c 0,0.014311 0.011675,0.025987 0.025987,0.025987 z"
     class="fil0 str0"
     id="path1610" /><path
     id="path1616"
     class="fil0 str0"
     d="M 0.81494772,4.8173384 H 1.0748162 c 0.014311,0 0.025987,-0.011676 0.025987,-0.025987 V 4.5314829 c 0,-0.014311 -0.011676,-0.025987 -0.025987,-0.025987 H 0.81494772 c -0.014312,0 -0.025987,0.011676 -0.025987,0.025987 v 0.2598687 c 0,0.014311 0.011675,0.025987 0.025987,0.025987 z"
     inkscape:connector-curvature="0"
     style="fill:none;fill-rule:nonzero;stroke:#0000ff;stroke-width:0.00787402;stroke-linecap:round;stroke-linejoin:round;stroke-miterlimit:4;stroke-dasharray:none;stroke-opacity:1" /><path
     id="path1618"
     class="fil0 str0"
     d="M 1.2086485,4.8173384 H 1.468517 c 0.014311,0 0.025987,-0.011676 0.025987,-0.025987 V 4.531483 c 0,-0.014311 -0.011675,-0.025987 -0.025987,-0.025987 H 1.2086485 c -0.014312,0 -0.025987,0.011676 -0.025987,0.025987 v 0.2598685 c 0,0.014311 0.011675,0.025987 0.025987,0.025987 z"
     inkscape:connector-curvature="0"
     style="fill:none;fill-rule:nonzero;stroke:#0000ff;stroke-width:0.00787402;stroke-linecap:round;stroke-linejoin:round;stroke-miterlimit:4;stroke-dasharray:none;stroke-opacity:1" /><path
     style="fill:none;fill-rule:nonzero;stroke:#0000ff;stroke-width:0.00787402;stroke-linecap:round;stroke-linejoin:round;stroke-miterlimit:4;stroke-dasharray:none;stroke-opacity:1"
     inkscape:connector-curvature="0"
     d="m 1.6023493,4.8173384 h 0.2598685 c 0.014311,0 0.025987,-0.011676 0.025987,-0.025987 V 4.5314829 c 0,-0.014311 -0.011676,-0.025987 -0.025987,-0.025987 H 1.6023493 c -0.014312,0 -0.025987,0.011676 -0.025987,0.025987 v 0.2598687 c 0,0.014311 0.011675,0.025987 0.025987,0.025987 z"
     class="fil0 str0"
     id="path1620" /><path
     id="path1622"
     class="fil0 str0"
     d="m 1.99605,4.8173384 h 0.2598685 c 0.014312,0 0.025987,-0.011676 0.025987,-0.025987 V 4.531483 c 0,-0.014311 -0.011675,-0.025987 -0.025987,-0.025987 H 1.99605 c -0.014312,0 -0.025987,0.011676 -0.025987,0.025987 v 0.2598685 c 0,0.014311 0.011675,0.025987 0.025987,0.025987 z"
     inkscape:connector-curvature="0"
     style="fill:none;fill-rule:nonzero;stroke:#0000ff;stroke-width:0.00787402;stroke-linecap:round;stroke-linejoin:round;stroke-miterlimit:4;stroke-dasharray:none;stroke-opacity:1" /><path
     style="fill:none;fill-rule:nonzero;stroke:#0000ff;stroke-width:0.00787402;stroke-linecap:round;stroke-linejoin:round;stroke-miterlimit:4;stroke-dasharray:none;stroke-opacity:1"
     inkscape:connector-curvature="0"
     d="m 2.3897508,4.8173384 h 0.2598686 c 0.014311,0 0.025987,-0.011676 0.025987,-0.025987 V 4.5314829 c 0,-0.014311 -0.011676,-0.025987 -0.025987,-0.025987 H 2.3897508 c -0.014311,0 -0.025987,0.011676 -0.025987,0.025987 v 0.2598687 c 0,0.014311 0.011675,0.025987 0.025987,0.025987 z"
     class="fil0 str0"
     id="path1624" /><path
     style="fill:none;fill-rule:nonzero;stroke:#0000ff;stroke-width:0.00787402;stroke-linecap:round;stroke-linejoin:round;stroke-miterlimit:4;stroke-dasharray:none;stroke-opacity:1"
     inkscape:connector-curvature="0"
     d="m 2.7834517,4.8173384 h 0.2598685 c 0.014311,0 0.025987,-0.011676 0.025987,-0.025987 V 4.531483 c 0,-0.014311 -0.011675,-0.025987 -0.025987,-0.025987 H 2.7834517 c -0.014312,0 -0.025987,0.011676 -0.025987,0.025987 v 0.2598685 c 0,0.014311 0.011675,0.025987 0.025987,0.025987 z"
     class="fil0 str0"
     id="path1626" /><path
     id="path1628"
     class="fil0 str0"
     d="M 3.1771525,4.8173384 H 3.437021 c 0.014311,0 0.025987,-0.011676 0.025987,-0.025987 V 4.5314829 c 0,-0.014311 -0.011676,-0.025987 -0.025987,-0.025987 H 3.1771525 c -0.014312,0 -0.025987,0.011676 -0.025987,0.025987 v 0.2598687 c 0,0.014311 0.011675,0.025987 0.025987,0.025987 z"
     inkscape:connector-curvature="0"
     style="fill:none;fill-rule:nonzero;stroke:#0000ff;stroke-width:0.00787402;stroke-linecap:round;stroke-linejoin:round;stroke-miterlimit:4;stroke-dasharray:none;stroke-opacity:1" /><path
     id="path1630"
     class="fil0 str0"
     d="m 3.5708533,4.8173384 h 0.2598686 c 0.014311,0 0.025987,-0.011676 0.025987,-0.025987 V 4.5314829 c 0,-0.014311 -0.011676,-0.025987 -0.025987,-0.025987 H 3.5708533 c -0.014311,0 -0.025987,0.011676 -0.025987,0.025987 v 0.2598687 c 0,0.014311 0.011675,0.025987 0.025987,0.025987 z"
     inkscape:connector-curvature="0"
     style="fill:none;fill-rule:nonzero;stroke:#0000ff;stroke-width:0.00787402;stroke-linecap:round;stroke-linejoin:round;stroke-miterlimit:4;stroke-dasharray:none;stroke-opacity:1" /><path
     id="path1632"
     class="fil0 str0"
     d="m 3.9645542,4.8173384 h 0.2598685 c 0.014311,0 0.025987,-0.011676 0.025987,-0.025987 V 4.531483 c 0,-0.014311 -0.011675,-0.025987 -0.025987,-0.025987 H 3.9645542 c -0.014312,0 -0.025987,0.011676 -0.025987,0.025987 v 0.2598685 c 0,0.014311 0.011675,0.025987 0.025987,0.025987 z"
     inkscape:connector-curvature="0"
     style="fill:none;fill-rule:nonzero;stroke:#0000ff;stroke-width:0.00787402;stroke-linecap:round;stroke-linejoin:round;stroke-miterlimit:4;stroke-dasharray:none;stroke-opacity:1" /><path
     style="fill:none;fill-rule:nonzero;stroke:#0000ff;stroke-width:0.00787402;stroke-linecap:round;stroke-linejoin:round;stroke-miterlimit:4;stroke-dasharray:none;stroke-opacity:1"
     inkscape:connector-curvature="0"
     d="M 0.81494762,4.4236376 H 1.0748162 c 0.014311,0 0.025987,-0.011676 0.025987,-0.025987 V 4.1377821 c 0,-0.014311 -0.011676,-0.025987 -0.025987,-0.025987 H 0.81494762 c -0.0143115,0 -0.0259868,0.011676 -0.0259868,0.025987 v 0.2598687 c 0,0.014311 0.0116754,0.025987 0.0259868,0.025987 z"
     class="fil0 str0"
     id="path1638" /><path
     style="fill:none;fill-rule:nonzero;stroke:#0000ff;stroke-width:0.00787402;stroke-linecap:round;stroke-linejoin:round;stroke-miterlimit:4;stroke-dasharray:none;stroke-opacity:1"
     inkscape:connector-curvature="0"
     d="M 1.2086485,4.4236376 H 1.468517 c 0.014311,0 0.025987,-0.011676 0.025987,-0.025987 V 4.1377822 c 0,-0.014311 -0.011675,-0.025987 -0.025987,-0.025987 H 1.2086485 c -0.014312,0 -0.025987,0.011676 -0.025987,0.025987 v 0.2598685 c 0,0.014311 0.011675,0.025987 0.025987,0.025987 z"
     class="fil0 str0"
     id="path1640" /><path
     id="path1642"
     class="fil0 str0"
     d="m 1.6023493,4.4236376 h 0.2598685 c 0.014311,0 0.025987,-0.011676 0.025987,-0.025987 V 4.1377821 c 0,-0.014311 -0.011676,-0.025987 -0.025987,-0.025987 H 1.6023493 c -0.014312,0 -0.025987,0.011676 -0.025987,0.025987 v 0.2598687 c 0,0.014311 0.011675,0.025987 0.025987,0.025987 z"
     inkscape:connector-curvature="0"
     style="fill:none;fill-rule:nonzero;stroke:#0000ff;stroke-width:0.00787402;stroke-linecap:round;stroke-linejoin:round;stroke-miterlimit:4;stroke-dasharray:none;stroke-opacity:1" /><path
     style="fill:none;fill-rule:nonzero;stroke:#0000ff;stroke-width:0.00787402;stroke-linecap:round;stroke-linejoin:round;stroke-miterlimit:4;stroke-dasharray:none;stroke-opacity:1"
     inkscape:connector-curvature="0"
     d="m 1.99605,4.4236376 h 0.2598685 c 0.014312,0 0.025987,-0.011676 0.025987,-0.025987 V 4.1377822 c 0,-0.014311 -0.011675,-0.025987 -0.025987,-0.025987 H 1.99605 c -0.014312,0 -0.025987,0.011676 -0.025987,0.025987 v 0.2598685 c 0,0.014311 0.011675,0.025987 0.025987,0.025987 z"
     class="fil0 str0"
     id="path1644" /><path
     id="path1646"
     class="fil0 str0"
     d="m 2.3897508,4.4236376 h 0.2598686 c 0.014311,0 0.025987,-0.011676 0.025987,-0.025987 V 4.1377821 c 0,-0.014311 -0.011676,-0.025987 -0.025987,-0.025987 H 2.3897508 c -0.014311,0 -0.025987,0.011676 -0.025987,0.025987 v 0.2598687 c 0,0.014311 0.011675,0.025987 0.025987,0.025987 z"
     inkscape:connector-curvature="0"
     style="fill:none;fill-rule:nonzero;stroke:#0000ff;stroke-width:0.00787402;stroke-linecap:round;stroke-linejoin:round;stroke-miterlimit:4;stroke-dasharray:none;stroke-opacity:1" /><path
     id="path1648"
     class="fil0 str0"
     d="m 2.7834517,4.4236376 h 0.2598685 c 0.014311,0 0.025987,-0.011676 0.025987,-0.025987 V 4.1377822 c 0,-0.014311 -0.011675,-0.025987 -0.025987,-0.025987 H 2.7834517 c -0.014312,0 -0.025987,0.011676 -0.025987,0.025987 v 0.2598685 c 0,0.014311 0.011675,0.025987 0.025987,0.025987 z"
     inkscape:connector-curvature="0"
     style="fill:none;fill-rule:nonzero;stroke:#0000ff;stroke-width:0.00787402;stroke-linecap:round;stroke-linejoin:round;stroke-miterlimit:4;stroke-dasharray:none;stroke-opacity:1" /><path
     style="fill:none;fill-rule:nonzero;stroke:#0000ff;stroke-width:0.00787402;stroke-linecap:round;stroke-linejoin:round;stroke-miterlimit:4;stroke-dasharray:none;stroke-opacity:1"
     inkscape:connector-curvature="0"
     d="M 3.1771525,4.4236376 H 3.437021 c 0.014311,0 0.025987,-0.011676 0.025987,-0.025987 V 4.1377821 c 0,-0.014311 -0.011676,-0.025987 -0.025987,-0.025987 H 3.1771525 c -0.014312,0 -0.025987,0.011676 -0.025987,0.025987 v 0.2598687 c 0,0.014311 0.011675,0.025987 0.025987,0.025987 z"
     class="fil0 str0"
     id="path1650" /><path
     style="fill:none;fill-rule:nonzero;stroke:#0000ff;stroke-width:0.00787402;stroke-linecap:round;stroke-linejoin:round;stroke-miterlimit:4;stroke-dasharray:none;stroke-opacity:1"
     inkscape:connector-curvature="0"
     d="m 3.5708533,4.4236376 h 0.2598686 c 0.014311,0 0.025987,-0.011676 0.025987,-0.025987 V 4.1377821 c 0,-0.014311 -0.011676,-0.025987 -0.025987,-0.025987 H 3.5708533 c -0.014311,0 -0.025987,0.011676 -0.025987,0.025987 v 0.2598687 c 0,0.014311 0.011675,0.025987 0.025987,0.025987 z"
     class="fil0 str0"
     id="path1652" /><path
     style="fill:none;fill-rule:nonzero;stroke:#0000ff;stroke-width:0.00787402;stroke-linecap:round;stroke-linejoin:round;stroke-miterlimit:4;stroke-dasharray:none;stroke-opacity:1"
     inkscape:connector-curvature="0"
     d="m 3.9645542,4.4236376 h 0.2598685 c 0.014311,0 0.025987,-0.011676 0.025987,-0.025987 V 4.1377822 c 0,-0.014311 -0.011675,-0.025987 -0.025987,-0.025987 H 3.9645542 c -0.014312,0 -0.025987,0.011676 -0.025987,0.025987 v 0.2598685 c 0,0.014311 0.011675,0.025987 0.025987,0.025987 z"
     class="fil0 str0"
     id="path1654" /><path
     id="path1660"
     class="fil0 str0"
     d="M 0.81494772,4.0299368 H 1.0748162 c 0.014311,0 0.025987,-0.011676 0.025987,-0.025987 V 3.7440813 c 0,-0.014311 -0.011676,-0.025987 -0.025987,-0.025987 H 0.81494772 c -0.014312,0 -0.025987,0.011676 -0.025987,0.025987 V 4.00395 c 0,0.014311 0.011675,0.025987 0.025987,0.025987 z"
     inkscape:connector-curvature="0"
     style="fill:none;fill-rule:nonzero;stroke:#0000ff;stroke-width:0.00787402;stroke-linecap:round;stroke-linejoin:round;stroke-miterlimit:4;stroke-dasharray:none;stroke-opacity:1" /><path
     id="path1662"
     class="fil0 str0"
     d="M 1.2086485,4.0299368 H 1.468517 c 0.014311,0 0.025987,-0.011676 0.025987,-0.025987 V 3.7440814 c 0,-0.014311 -0.011675,-0.025987 -0.025987,-0.025987 H 1.2086485 c -0.014312,0 -0.025987,0.011676 -0.025987,0.025987 v 0.2598685 c 0,0.014311 0.011675,0.025987 0.025987,0.025987 z"
     inkscape:connector-curvature="0"
     style="fill:none;fill-rule:nonzero;stroke:#0000ff;stroke-width:0.00787402;stroke-linecap:round;stroke-linejoin:round;stroke-miterlimit:4;stroke-dasharray:none;stroke-opacity:1" /><path
     style="fill:none;fill-rule:nonzero;stroke:#0000ff;stroke-width:0.00787402;stroke-linecap:round;stroke-linejoin:round;stroke-miterlimit:4;stroke-dasharray:none;stroke-opacity:1"
     inkscape:connector-curvature="0"
     d="m 1.6023493,4.0299368 h 0.2598685 c 0.014311,0 0.025987,-0.011676 0.025987,-0.025987 V 3.7440813 c 0,-0.014311 -0.011676,-0.025987 -0.025987,-0.025987 H 1.6023493 c -0.014312,0 -0.025987,0.011676 -0.025987,0.025987 V 4.00395 c 0,0.014311 0.011675,0.025987 0.025987,0.025987 z"
     class="fil0 str0"
     id="path1664" /><path
     id="path1666"
     class="fil0 str0"
     d="m 1.99605,4.0299368 h 0.2598685 c 0.014312,0 0.025987,-0.011676 0.025987,-0.025987 V 3.7440814 c 0,-0.014311 -0.011675,-0.025987 -0.025987,-0.025987 H 1.99605 c -0.014312,0 -0.025987,0.011676 -0.025987,0.025987 v 0.2598685 c 0,0.014311 0.011675,0.025987 0.025987,0.025987 z"
     inkscape:connector-curvature="0"
     style="fill:none;fill-rule:nonzero;stroke:#0000ff;stroke-width:0.00787402;stroke-linecap:round;stroke-linejoin:round;stroke-miterlimit:4;stroke-dasharray:none;stroke-opacity:1" /><path
     style="fill:none;fill-rule:nonzero;stroke:#0000ff;stroke-width:0.00787402;stroke-linecap:round;stroke-linejoin:round;stroke-miterlimit:4;stroke-dasharray:none;stroke-opacity:1"
     inkscape:connector-curvature="0"
     d="m 2.3897508,4.0299368 h 0.2598686 c 0.014311,0 0.025987,-0.011676 0.025987,-0.025987 V 3.7440813 c 0,-0.014311 -0.011676,-0.025987 -0.025987,-0.025987 H 2.3897508 c -0.014311,0 -0.025987,0.011676 -0.025987,0.025987 V 4.00395 c 0,0.014311 0.011675,0.025987 0.025987,0.025987 z"
     class="fil0 str0"
     id="path1668" /><path
     style="fill:none;fill-rule:nonzero;stroke:#0000ff;stroke-width:0.00787402;stroke-linecap:round;stroke-linejoin:round;stroke-miterlimit:4;stroke-dasharray:none;stroke-opacity:1"
     inkscape:connector-curvature="0"
     d="m 2.7834517,4.0299368 h 0.2598685 c 0.014311,0 0.025987,-0.011676 0.025987,-0.025987 V 3.7440814 c 0,-0.014311 -0.011675,-0.025987 -0.025987,-0.025987 H 2.7834517 c -0.014312,0 -0.025987,0.011676 -0.025987,0.025987 v 0.2598685 c 0,0.014311 0.011675,0.025987 0.025987,0.025987 z"
     class="fil0 str0"
     id="path1670" /><path
     id="path1672"
     class="fil0 str0"
     d="M 3.1771525,4.0299368 H 3.437021 c 0.014311,0 0.025987,-0.011676 0.025987,-0.025987 V 3.7440813 c 0,-0.014311 -0.011676,-0.025987 -0.025987,-0.025987 H 3.1771525 c -0.014312,0 -0.025987,0.011676 -0.025987,0.025987 V 4.00395 c 0,0.014311 0.011675,0.025987 0.025987,0.025987 z"
     inkscape:connector-curvature="0"
     style="fill:none;fill-rule:nonzero;stroke:#0000ff;stroke-width:0.00787402;stroke-linecap:round;stroke-linejoin:round;stroke-miterlimit:4;stroke-dasharray:none;stroke-opacity:1" /><path
     id="path1674"
     class="fil0 str0"
     d="m 3.5708533,4.0299368 h 0.2598686 c 0.014311,0 0.025987,-0.011676 0.025987,-0.025987 V 3.7440813 c 0,-0.014311 -0.011676,-0.025987 -0.025987,-0.025987 H 3.5708533 c -0.014311,0 -0.025987,0.011676 -0.025987,0.025987 V 4.00395 c 0,0.014311 0.011675,0.025987 0.025987,0.025987 z"
     inkscape:connector-curvature="0"
     style="fill:none;fill-rule:nonzero;stroke:#0000ff;stroke-width:0.00787402;stroke-linecap:round;stroke-linejoin:round;stroke-miterlimit:4;stroke-dasharray:none;stroke-opacity:1" /><path
     id="path1676"
     class="fil0 str0"
     d="m 3.9645542,4.0299368 h 0.2598685 c 0.014311,0 0.025987,-0.011676 0.025987,-0.025987 V 3.7440814 c 0,-0.014311 -0.011675,-0.025987 -0.025987,-0.025987 H 3.9645542 c -0.014312,0 -0.025987,0.011676 -0.025987,0.025987 v 0.2598685 c 0,0.014311 0.011675,0.025987 0.025987,0.025987 z"
     inkscape:connector-curvature="0"
     style="fill:none;fill-rule:nonzero;stroke:#0000ff;stroke-width:0.00787402;stroke-linecap:round;stroke-linejoin:round;stroke-miterlimit:4;stroke-dasharray:none;stroke-opacity:1" /><path
     style="fill:none;fill-rule:nonzero;stroke:#0000ff;stroke-width:0.00787402;stroke-linecap:round;stroke-linejoin:round;stroke-miterlimit:4;stroke-dasharray:none;stroke-opacity:1"
     inkscape:connector-curvature="0"
     d="M 0.81494772,3.636236 H 1.0748162 c 0.014311,0 0.025987,-0.011676 0.025987,-0.025987 V 3.3503805 c 0,-0.014311 -0.011676,-0.025987 -0.025987,-0.025987 H 0.81494772 c -0.014312,0 -0.025987,0.011676 -0.025987,0.025987 v 0.2598687 c 0,0.014311 0.011675,0.025987 0.025987,0.025987 z"
     class="fil0 str0"
     id="path1682" /><path
     style="fill:none;fill-rule:nonzero;stroke:#0000ff;stroke-width:0.00787402;stroke-linecap:round;stroke-linejoin:round;stroke-miterlimit:4;stroke-dasharray:none;stroke-opacity:1"
     inkscape:connector-curvature="0"
     d="M 1.2086485,3.636236 H 1.468517 c 0.014311,0 0.025987,-0.011676 0.025987,-0.025987 V 3.3503806 c 0,-0.014311 -0.011675,-0.025987 -0.025987,-0.025987 H 1.2086485 c -0.014312,0 -0.025987,0.011676 -0.025987,0.025987 v 0.2598685 c 0,0.014311 0.011675,0.025987 0.025987,0.025987 z"
     class="fil0 str0"
     id="path1684" /><path
     id="path1686"
     class="fil0 str0"
     d="m 1.6023493,3.636236 h 0.2598685 c 0.014311,0 0.025987,-0.011676 0.025987,-0.025987 V 3.3503805 c 0,-0.014311 -0.011676,-0.025987 -0.025987,-0.025987 H 1.6023493 c -0.014312,0 -0.025987,0.011676 -0.025987,0.025987 v 0.2598687 c 0,0.014311 0.011675,0.025987 0.025987,0.025987 z"
     inkscape:connector-curvature="0"
     style="fill:none;fill-rule:nonzero;stroke:#0000ff;stroke-width:0.00787402;stroke-linecap:round;stroke-linejoin:round;stroke-miterlimit:4;stroke-dasharray:none;stroke-opacity:1" /><path
     style="fill:none;fill-rule:nonzero;stroke:#0000ff;stroke-width:0.00787402;stroke-linecap:round;stroke-linejoin:round;stroke-miterlimit:4;stroke-dasharray:none;stroke-opacity:1"
     inkscape:connector-curvature="0"
     d="m 1.99605,3.636236 h 0.2598685 c 0.014312,0 0.025987,-0.011676 0.025987,-0.025987 V 3.3503806 c 0,-0.014311 -0.011675,-0.025987 -0.025987,-0.025987 H 1.99605 c -0.014312,0 -0.025987,0.011676 -0.025987,0.025987 v 0.2598685 c 0,0.014311 0.011675,0.025987 0.025987,0.025987 z"
     class="fil0 str0"
     id="path1688" /><path
     id="path1690"
     class="fil0 str0"
     d="m 2.3897508,3.636236 h 0.2598686 c 0.014311,0 0.025987,-0.011676 0.025987,-0.025987 V 3.3503805 c 0,-0.014311 -0.011676,-0.025987 -0.025987,-0.025987 H 2.3897508 c -0.014311,0 -0.025987,0.011676 -0.025987,0.025987 v 0.2598687 c 0,0.014311 0.011675,0.025987 0.025987,0.025987 z"
     inkscape:connector-curvature="0"
     style="fill:none;fill-rule:nonzero;stroke:#0000ff;stroke-width:0.00787402;stroke-linecap:round;stroke-linejoin:round;stroke-miterlimit:4;stroke-dasharray:none;stroke-opacity:1" /><path
     id="path1692"
     class="fil0 str0"
     d="m 2.7834517,3.636236 h 0.2598685 c 0.014311,0 0.025987,-0.011676 0.025987,-0.025987 V 3.3503806 c 0,-0.014311 -0.011675,-0.025987 -0.025987,-0.025987 H 2.7834517 c -0.014312,0 -0.025987,0.011676 -0.025987,0.025987 v 0.2598685 c 0,0.014311 0.011675,0.025987 0.025987,0.025987 z"
     inkscape:connector-curvature="0"
     style="fill:none;fill-rule:nonzero;stroke:#0000ff;stroke-width:0.00787402;stroke-linecap:round;stroke-linejoin:round;stroke-miterlimit:4;stroke-dasharray:none;stroke-opacity:1" /><path
     style="fill:none;fill-rule:nonzero;stroke:#0000ff;stroke-width:0.00787402;stroke-linecap:round;stroke-linejoin:round;stroke-miterlimit:4;stroke-dasharray:none;stroke-opacity:1"
     inkscape:connector-curvature="0"
     d="M 3.1771525,3.636236 H 3.437021 c 0.014311,0 0.025987,-0.011676 0.025987,-0.025987 V 3.3503805 c 0,-0.014311 -0.011676,-0.025987 -0.025987,-0.025987 H 3.1771525 c -0.014312,0 -0.025987,0.011676 -0.025987,0.025987 v 0.2598687 c 0,0.014311 0.011675,0.025987 0.025987,0.025987 z"
     class="fil0 str0"
     id="path1694" /><path
     style="fill:none;fill-rule:nonzero;stroke:#0000ff;stroke-width:0.00787402;stroke-linecap:round;stroke-linejoin:round;stroke-miterlimit:4;stroke-dasharray:none;stroke-opacity:1"
     inkscape:connector-curvature="0"
     d="m 3.5708533,3.636236 h 0.2598686 c 0.014311,0 0.025987,-0.011676 0.025987,-0.025987 V 3.3503805 c 0,-0.014311 -0.011676,-0.025987 -0.025987,-0.025987 H 3.5708533 c -0.014311,0 -0.025987,0.011676 -0.025987,0.025987 v 0.2598687 c 0,0.014311 0.011675,0.025987 0.025987,0.025987 z"
     class="fil0 str0"
     id="path1696" /><path
     style="fill:none;fill-rule:nonzero;stroke:#0000ff;stroke-width:0.00787402;stroke-linecap:round;stroke-linejoin:round;stroke-miterlimit:4;stroke-dasharray:none;stroke-opacity:1"
     inkscape:connector-curvature="0"
     d="m 3.9645542,3.636236 h 0.2598685 c 0.014311,0 0.025987,-0.011676 0.025987,-0.025987 V 3.3503806 c 0,-0.014311 -0.011675,-0.025987 -0.025987,-0.025987 H 3.9645542 c -0.014312,0 -0.025987,0.011676 -0.025987,0.025987 v 0.2598685 c 0,0.014311 0.011675,0.025987 0.025987,0.025987 z"
     class="fil0 str0"
     id="path1698" /><path
     style="fill:none;fill-rule:nonzero;stroke:#0000ff;stroke-width:0.00787402;stroke-linecap:round;stroke-linejoin:round;stroke-miterlimit:4;stroke-dasharray:none;stroke-opacity:1"
     inkscape:connector-curvature="0"
     d="M 0.81494762,3.2425353 H 1.0748162 c 0.014311,0 0.025987,-0.011676 0.025987,-0.025987 V 2.9566798 c 0,-0.014311 -0.011676,-0.025987 -0.025987,-0.025987 H 0.81494762 c -0.0143115,0 -0.0259868,0.011676 -0.0259868,0.025987 v 0.2598687 c 0,0.014311 0.0116754,0.025987 0.0259868,0.025987 z"
     class="fil0 str0"
     id="path1704" /><path
     style="fill:none;fill-rule:nonzero;stroke:#0000ff;stroke-width:0.00787402;stroke-linecap:round;stroke-linejoin:round;stroke-miterlimit:4;stroke-dasharray:none;stroke-opacity:1"
     inkscape:connector-curvature="0"
     d="M 1.2086485,3.2425353 H 1.468517 c 0.014311,0 0.025987,-0.011676 0.025987,-0.025987 V 2.9566799 c 0,-0.014311 -0.011675,-0.025987 -0.025987,-0.025987 H 1.2086485 c -0.014312,0 -0.025987,0.011676 -0.025987,0.025987 v 0.2598685 c 0,0.014311 0.011675,0.025987 0.025987,0.025987 z"
     class="fil0 str0"
     id="path1706" /><path
     id="path1708"
     class="fil0 str0"
     d="m 1.6023493,3.2425353 h 0.2598685 c 0.014311,0 0.025987,-0.011676 0.025987,-0.025987 V 2.9566798 c 0,-0.014311 -0.011676,-0.025987 -0.025987,-0.025987 H 1.6023493 c -0.014312,0 -0.025987,0.011676 -0.025987,0.025987 v 0.2598687 c 0,0.014311 0.011675,0.025987 0.025987,0.025987 z"
     inkscape:connector-curvature="0"
     style="fill:none;fill-rule:nonzero;stroke:#0000ff;stroke-width:0.00787402;stroke-linecap:round;stroke-linejoin:round;stroke-miterlimit:4;stroke-dasharray:none;stroke-opacity:1" /><path
     style="fill:none;fill-rule:nonzero;stroke:#0000ff;stroke-width:0.00787402;stroke-linecap:round;stroke-linejoin:round;stroke-miterlimit:4;stroke-dasharray:none;stroke-opacity:1"
     inkscape:connector-curvature="0"
     d="m 1.99605,3.2425353 h 0.2598685 c 0.014312,0 0.025987,-0.011676 0.025987,-0.025987 V 2.9566799 c 0,-0.014311 -0.011675,-0.025987 -0.025987,-0.025987 H 1.99605 c -0.014312,0 -0.025987,0.011676 -0.025987,0.025987 v 0.2598685 c 0,0.014311 0.011675,0.025987 0.025987,0.025987 z"
     class="fil0 str0"
     id="path1710" /><path
     id="path1712"
     class="fil0 str0"
     d="m 2.3897508,3.2425353 h 0.2598686 c 0.014311,0 0.025987,-0.011676 0.025987,-0.025987 V 2.9566798 c 0,-0.014311 -0.011676,-0.025987 -0.025987,-0.025987 H 2.3897508 c -0.014311,0 -0.025987,0.011676 -0.025987,0.025987 v 0.2598687 c 0,0.014311 0.011675,0.025987 0.025987,0.025987 z"
     inkscape:connector-curvature="0"
     style="fill:none;fill-rule:nonzero;stroke:#0000ff;stroke-width:0.00787402;stroke-linecap:round;stroke-linejoin:round;stroke-miterlimit:4;stroke-dasharray:none;stroke-opacity:1" /><path
     id="path1714"
     class="fil0 str0"
     d="m 2.7834517,3.2425353 h 0.2598685 c 0.014311,0 0.025987,-0.011676 0.025987,-0.025987 V 2.9566799 c 0,-0.014311 -0.011675,-0.025987 -0.025987,-0.025987 H 2.7834517 c -0.014312,0 -0.025987,0.011676 -0.025987,0.025987 v 0.2598685 c 0,0.014311 0.011675,0.025987 0.025987,0.025987 z"
     inkscape:connector-curvature="0"
     style="fill:none;fill-rule:nonzero;stroke:#0000ff;stroke-width:0.00787402;stroke-linecap:round;stroke-linejoin:round;stroke-miterlimit:4;stroke-dasharray:none;stroke-opacity:1" /><path
     style="fill:none;fill-rule:nonzero;stroke:#0000ff;stroke-width:0.00787402;stroke-linecap:round;stroke-linejoin:round;stroke-miterlimit:4;stroke-dasharray:none;stroke-opacity:1"
     inkscape:connector-curvature="0"
     d="M 3.1771525,3.2425353 H 3.437021 c 0.014311,0 0.025987,-0.011676 0.025987,-0.025987 V 2.9566798 c 0,-0.014311 -0.011676,-0.025987 -0.025987,-0.025987 H 3.1771525 c -0.014312,0 -0.025987,0.011676 -0.025987,0.025987 v 0.2598687 c 0,0.014311 0.011675,0.025987 0.025987,0.025987 z"
     class="fil0 str0"
     id="path1716" /><path
     style="fill:none;fill-rule:nonzero;stroke:#0000ff;stroke-width:0.00787402;stroke-linecap:round;stroke-linejoin:round;stroke-miterlimit:4;stroke-dasharray:none;stroke-opacity:1"
     inkscape:connector-curvature="0"
     d="m 3.5708533,3.2425353 h 0.2598686 c 0.014311,0 0.025987,-0.011676 0.025987,-0.025987 V 2.9566798 c 0,-0.014311 -0.011676,-0.025987 -0.025987,-0.025987 H 3.5708533 c -0.014311,0 -0.025987,0.011676 -0.025987,0.025987 v 0.2598687 c 0,0.014311 0.011675,0.025987 0.025987,0.025987 z"
     class="fil0 str0"
     id="path1718" /><path
     style="fill:none;fill-rule:nonzero;stroke:#0000ff;stroke-width:0.00787402;stroke-linecap:round;stroke-linejoin:round;stroke-miterlimit:4;stroke-dasharray:none;stroke-opacity:1"
     inkscape:connector-curvature="0"
     d="m 3.9645542,3.2425353 h 0.2598685 c 0.014311,0 0.025987,-0.011676 0.025987,-0.025987 V 2.9566799 c 0,-0.014311 -0.011675,-0.025987 -0.025987,-0.025987 H 3.9645542 c -0.014312,0 -0.025987,0.011676 -0.025987,0.025987 v 0.2598685 c 0,0.014311 0.011675,0.025987 0.025987,0.025987 z"
     class="fil0 str0"
     id="path1720" /><path
     id="path1726"
     class="fil0 str0"
     d="M 0.81494772,2.8488345 H 1.0748162 c 0.014311,0 0.025987,-0.011676 0.025987,-0.025987 V 2.562979 c 0,-0.014311 -0.011676,-0.025987 -0.025987,-0.025987 H 0.81494772 c -0.014312,0 -0.025987,0.011676 -0.025987,0.025987 v 0.2598687 c 0,0.014311 0.011675,0.025987 0.025987,0.025987 z"
     inkscape:connector-curvature="0"
     style="fill:none;fill-rule:nonzero;stroke:#0000ff;stroke-width:0.00787402;stroke-linecap:round;stroke-linejoin:round;stroke-miterlimit:4;stroke-dasharray:none;stroke-opacity:1" /><path
     id="path1728"
     class="fil0 str0"
     d="M 1.2086485,2.8488345 H 1.468517 c 0.014311,0 0.025987,-0.011676 0.025987,-0.025987 V 2.5629791 c 0,-0.014311 -0.011675,-0.025987 -0.025987,-0.025987 H 1.2086485 c -0.014312,0 -0.025987,0.011676 -0.025987,0.025987 v 0.2598685 c 0,0.014311 0.011675,0.025987 0.025987,0.025987 z"
     inkscape:connector-curvature="0"
     style="fill:none;fill-rule:nonzero;stroke:#0000ff;stroke-width:0.00787402;stroke-linecap:round;stroke-linejoin:round;stroke-miterlimit:4;stroke-dasharray:none;stroke-opacity:1" /><path
     style="fill:none;fill-rule:nonzero;stroke:#0000ff;stroke-width:0.00787402;stroke-linecap:round;stroke-linejoin:round;stroke-miterlimit:4;stroke-dasharray:none;stroke-opacity:1"
     inkscape:connector-curvature="0"
     d="m 1.6023493,2.8488345 h 0.2598685 c 0.014311,0 0.025987,-0.011676 0.025987,-0.025987 V 2.562979 c 0,-0.014311 -0.011676,-0.025987 -0.025987,-0.025987 H 1.6023493 c -0.014312,0 -0.025987,0.011676 -0.025987,0.025987 v 0.2598687 c 0,0.014311 0.011675,0.025987 0.025987,0.025987 z"
     class="fil0 str0"
     id="path1730" /><path
     id="path1732"
     class="fil0 str0"
     d="m 1.99605,2.8488345 h 0.2598685 c 0.014312,0 0.025987,-0.011676 0.025987,-0.025987 V 2.5629791 c 0,-0.014311 -0.011675,-0.025987 -0.025987,-0.025987 H 1.99605 c -0.014312,0 -0.025987,0.011676 -0.025987,0.025987 v 0.2598685 c 0,0.014311 0.011675,0.025987 0.025987,0.025987 z"
     inkscape:connector-curvature="0"
     style="fill:none;fill-rule:nonzero;stroke:#0000ff;stroke-width:0.00787402;stroke-linecap:round;stroke-linejoin:round;stroke-miterlimit:4;stroke-dasharray:none;stroke-opacity:1" /><path
     style="fill:none;fill-rule:nonzero;stroke:#0000ff;stroke-width:0.00787402;stroke-linecap:round;stroke-linejoin:round;stroke-miterlimit:4;stroke-dasharray:none;stroke-opacity:1"
     inkscape:connector-curvature="0"
     d="m 2.3897508,2.8488345 h 0.2598686 c 0.014311,0 0.025987,-0.011676 0.025987,-0.025987 V 2.562979 c 0,-0.014311 -0.011676,-0.025987 -0.025987,-0.025987 H 2.3897508 c -0.014311,0 -0.025987,0.011676 -0.025987,0.025987 v 0.2598687 c 0,0.014311 0.011675,0.025987 0.025987,0.025987 z"
     class="fil0 str0"
     id="path1734" /><path
     style="fill:none;fill-rule:nonzero;stroke:#0000ff;stroke-width:0.00787402;stroke-linecap:round;stroke-linejoin:round;stroke-miterlimit:4;stroke-dasharray:none;stroke-opacity:1"
     inkscape:connector-curvature="0"
     d="m 2.7834517,2.8488345 h 0.2598685 c 0.014311,0 0.025987,-0.011676 0.025987,-0.025987 V 2.5629791 c 0,-0.014311 -0.011675,-0.025987 -0.025987,-0.025987 H 2.7834517 c -0.014312,0 -0.025987,0.011676 -0.025987,0.025987 v 0.2598685 c 0,0.014311 0.011675,0.025987 0.025987,0.025987 z"
     class="fil0 str0"
     id="path1736" /><path
     id="path1738"
     class="fil0 str0"
     d="M 3.1771525,2.8488345 H 3.437021 c 0.014311,0 0.025987,-0.011676 0.025987,-0.025987 V 2.562979 c 0,-0.014311 -0.011676,-0.025987 -0.025987,-0.025987 H 3.1771525 c -0.014312,0 -0.025987,0.011676 -0.025987,0.025987 v 0.2598687 c 0,0.014311 0.011675,0.025987 0.025987,0.025987 z"
     inkscape:connector-curvature="0"
     style="fill:none;fill-rule:nonzero;stroke:#0000ff;stroke-width:0.00787402;stroke-linecap:round;stroke-linejoin:round;stroke-miterlimit:4;stroke-dasharray:none;stroke-opacity:1" /><path
     id="path1740"
     class="fil0 str0"
     d="m 3.5708533,2.8488345 h 0.2598686 c 0.014311,0 0.025987,-0.011676 0.025987,-0.025987 V 2.562979 c 0,-0.014311 -0.011676,-0.025987 -0.025987,-0.025987 H 3.5708533 c -0.014311,0 -0.025987,0.011676 -0.025987,0.025987 v 0.2598687 c 0,0.014311 0.011675,0.025987 0.025987,0.025987 z"
     inkscape:connector-curvature="0"
     style="fill:none;fill-rule:nonzero;stroke:#0000ff;stroke-width:0.00787402;stroke-linecap:round;stroke-linejoin:round;stroke-miterlimit:4;stroke-dasharray:none;stroke-opacity:1" /><path
     id="path1742"
     class="fil0 str0"
     d="m 3.9645542,2.8488345 h 0.2598685 c 0.014311,0 0.025987,-0.011676 0.025987,-0.025987 V 2.5629791 c 0,-0.014311 -0.011675,-0.025987 -0.025987,-0.025987 H 3.9645542 c -0.014312,0 -0.025987,0.011676 -0.025987,0.025987 v 0.2598685 c 0,0.014311 0.011675,0.025987 0.025987,0.025987 z"
     inkscape:connector-curvature="0"
     style="fill:none;fill-rule:nonzero;stroke:#0000ff;stroke-width:0.00787402;stroke-linecap:round;stroke-linejoin:round;stroke-miterlimit:4;stroke-dasharray:none;stroke-opacity:1" /><path
     style="fill:none;fill-rule:nonzero;stroke:#0000ff;stroke-width:0.00787402;stroke-linecap:round;stroke-linejoin:round;stroke-miterlimit:4;stroke-dasharray:none;stroke-opacity:1"
     inkscape:connector-curvature="0"
     d="M 0.81494772,2.4551337 H 1.0748162 c 0.014311,0 0.025987,-0.011676 0.025987,-0.025987 V 2.1692782 c 0,-0.014311 -0.011676,-0.025987 -0.025987,-0.025987 H 0.81494772 c -0.014312,0 -0.025987,0.011676 -0.025987,0.025987 v 0.2598687 c 0,0.014311 0.011675,0.025987 0.025987,0.025987 z"
     class="fil0 str0"
     id="path1748" /><path
     style="fill:none;fill-rule:nonzero;stroke:#0000ff;stroke-width:0.00787402;stroke-linecap:round;stroke-linejoin:round;stroke-miterlimit:4;stroke-dasharray:none;stroke-opacity:1"
     inkscape:connector-curvature="0"
     d="M 1.2086485,2.4551337 H 1.468517 c 0.014311,0 0.025987,-0.011676 0.025987,-0.025987 V 2.1692783 c 0,-0.014311 -0.011675,-0.025987 -0.025987,-0.025987 H 1.2086485 c -0.014312,0 -0.025987,0.011676 -0.025987,0.025987 v 0.2598685 c 0,0.014311 0.011675,0.025987 0.025987,0.025987 z"
     class="fil0 str0"
     id="path1750" /><path
     id="path1752"
     class="fil0 str0"
     d="m 1.6023493,2.4551337 h 0.2598685 c 0.014311,0 0.025987,-0.011676 0.025987,-0.025987 V 2.1692782 c 0,-0.014311 -0.011676,-0.025987 -0.025987,-0.025987 H 1.6023493 c -0.014312,0 -0.025987,0.011676 -0.025987,0.025987 v 0.2598687 c 0,0.014311 0.011675,0.025987 0.025987,0.025987 z"
     inkscape:connector-curvature="0"
     style="fill:none;fill-rule:nonzero;stroke:#0000ff;stroke-width:0.00787402;stroke-linecap:round;stroke-linejoin:round;stroke-miterlimit:4;stroke-dasharray:none;stroke-opacity:1" /><path
     style="fill:none;fill-rule:nonzero;stroke:#0000ff;stroke-width:0.00787402;stroke-linecap:round;stroke-linejoin:round;stroke-miterlimit:4;stroke-dasharray:none;stroke-opacity:1"
     inkscape:connector-curvature="0"
     d="m 1.99605,2.4551337 h 0.2598685 c 0.014312,0 0.025987,-0.011676 0.025987,-0.025987 V 2.1692783 c 0,-0.014311 -0.011675,-0.025987 -0.025987,-0.025987 H 1.99605 c -0.014312,0 -0.025987,0.011676 -0.025987,0.025987 v 0.2598685 c 0,0.014311 0.011675,0.025987 0.025987,0.025987 z"
     class="fil0 str0"
     id="path1754" /><path
     id="path1756"
     class="fil0 str0"
     d="m 2.3897508,2.4551337 h 0.2598686 c 0.014311,0 0.025987,-0.011676 0.025987,-0.025987 V 2.1692782 c 0,-0.014311 -0.011676,-0.025987 -0.025987,-0.025987 H 2.3897508 c -0.014311,0 -0.025987,0.011676 -0.025987,0.025987 v 0.2598687 c 0,0.014311 0.011675,0.025987 0.025987,0.025987 z"
     inkscape:connector-curvature="0"
     style="fill:none;fill-rule:nonzero;stroke:#0000ff;stroke-width:0.00787402;stroke-linecap:round;stroke-linejoin:round;stroke-miterlimit:4;stroke-dasharray:none;stroke-opacity:1" /><path
     id="path1758"
     class="fil0 str0"
     d="m 2.7834517,2.4551337 h 0.2598685 c 0.014311,0 0.025987,-0.011676 0.025987,-0.025987 V 2.1692783 c 0,-0.014311 -0.011675,-0.025987 -0.025987,-0.025987 H 2.7834517 c -0.014312,0 -0.025987,0.011676 -0.025987,0.025987 v 0.2598685 c 0,0.014311 0.011675,0.025987 0.025987,0.025987 z"
     inkscape:connector-curvature="0"
     style="fill:none;fill-rule:nonzero;stroke:#0000ff;stroke-width:0.00787402;stroke-linecap:round;stroke-linejoin:round;stroke-miterlimit:4;stroke-dasharray:none;stroke-opacity:1" /><path
     style="fill:none;fill-rule:nonzero;stroke:#0000ff;stroke-width:0.00787402;stroke-linecap:round;stroke-linejoin:round;stroke-miterlimit:4;stroke-dasharray:none;stroke-opacity:1"
     inkscape:connector-curvature="0"
     d="M 3.1771525,2.4551337 H 3.437021 c 0.014311,0 0.025987,-0.011676 0.025987,-0.025987 V 2.1692782 c 0,-0.014311 -0.011676,-0.025987 -0.025987,-0.025987 H 3.1771525 c -0.014312,0 -0.025987,0.011676 -0.025987,0.025987 v 0.2598687 c 0,0.014311 0.011675,0.025987 0.025987,0.025987 z"
     class="fil0 str0"
     id="path1760" /><path
     style="fill:none;fill-rule:nonzero;stroke:#0000ff;stroke-width:0.00787402;stroke-linecap:round;stroke-linejoin:round;stroke-miterlimit:4;stroke-dasharray:none;stroke-opacity:1"
     inkscape:connector-curvature="0"
     d="m 3.5708533,2.4551337 h 0.2598686 c 0.014311,0 0.025987,-0.011676 0.025987,-0.025987 V 2.1692782 c 0,-0.014311 -0.011676,-0.025987 -0.025987,-0.025987 H 3.5708533 c -0.014311,0 -0.025987,0.011676 -0.025987,0.025987 v 0.2598687 c 0,0.014311 0.011675,0.025987 0.025987,0.025987 z"
     class="fil0 str0"
     id="path1762" /><path
     style="fill:none;fill-rule:nonzero;stroke:#0000ff;stroke-width:0.00787402;stroke-linecap:round;stroke-linejoin:round;stroke-miterlimit:4;stroke-dasharray:none;stroke-opacity:1"
     inkscape:connector-curvature="0"
     d="m 3.9645542,2.4551337 h 0.2598685 c 0.014311,0 0.025987,-0.011676 0.025987,-0.025987 V 2.1692783 c 0,-0.014311 -0.011675,-0.025987 -0.025987,-0.025987 H 3.9645542 c -0.014312,0 -0.025987,0.011676 -0.025987,0.025987 v 0.2598685 c 0,0.014311 0.011675,0.025987 0.025987,0.025987 z"
     class="fil0 str0"
     id="path1764" /><path
     id="path1770"
     class="fil0 str0"
     d="M 0.81494762,2.0614329 H 1.0748162 c 0.014311,0 0.025987,-0.011676 0.025987,-0.025987 V 1.7755774 c 0,-0.014311 -0.011676,-0.025987 -0.025987,-0.025987 H 0.81494762 c -0.0143115,0 -0.0259868,0.011676 -0.0259868,0.025987 v 0.2598687 c 0,0.014311 0.0116754,0.025987 0.0259868,0.025987 z"
     inkscape:connector-curvature="0"
     style="fill:none;fill-rule:nonzero;stroke:#0000ff;stroke-width:0.00787402;stroke-linecap:round;stroke-linejoin:round;stroke-miterlimit:4;stroke-dasharray:none;stroke-opacity:1" /><path
     id="path1772"
     class="fil0 str0"
     d="M 1.2086485,2.0614329 H 1.468517 c 0.014311,0 0.025987,-0.011676 0.025987,-0.025987 V 1.7755775 c 0,-0.014311 -0.011675,-0.025987 -0.025987,-0.025987 H 1.2086485 c -0.014312,0 -0.025987,0.011676 -0.025987,0.025987 V 2.035446 c 0,0.014311 0.011675,0.025987 0.025987,0.025987 z"
     inkscape:connector-curvature="0"
     style="fill:none;fill-rule:nonzero;stroke:#0000ff;stroke-width:0.00787402;stroke-linecap:round;stroke-linejoin:round;stroke-miterlimit:4;stroke-dasharray:none;stroke-opacity:1" /><path
     style="fill:none;fill-rule:nonzero;stroke:#0000ff;stroke-width:0.00787402;stroke-linecap:round;stroke-linejoin:round;stroke-miterlimit:4;stroke-dasharray:none;stroke-opacity:1"
     inkscape:connector-curvature="0"
     d="m 1.6023493,2.0614329 h 0.2598685 c 0.014311,0 0.025987,-0.011676 0.025987,-0.025987 V 1.7755774 c 0,-0.014311 -0.011676,-0.025987 -0.025987,-0.025987 H 1.6023493 c -0.014312,0 -0.025987,0.011676 -0.025987,0.025987 v 0.2598687 c 0,0.014311 0.011675,0.025987 0.025987,0.025987 z"
     class="fil0 str0"
     id="path1774" /><path
     id="path1776"
     class="fil0 str0"
     d="m 1.99605,2.0614329 h 0.2598685 c 0.014312,0 0.025987,-0.011676 0.025987,-0.025987 V 1.7755775 c 0,-0.014311 -0.011675,-0.025987 -0.025987,-0.025987 H 1.99605 c -0.014312,0 -0.025987,0.011676 -0.025987,0.025987 V 2.035446 c 0,0.014311 0.011675,0.025987 0.025987,0.025987 z"
     inkscape:connector-curvature="0"
     style="fill:none;fill-rule:nonzero;stroke:#0000ff;stroke-width:0.00787402;stroke-linecap:round;stroke-linejoin:round;stroke-miterlimit:4;stroke-dasharray:none;stroke-opacity:1" /><path
     style="fill:none;fill-rule:nonzero;stroke:#0000ff;stroke-width:0.00787402;stroke-linecap:round;stroke-linejoin:round;stroke-miterlimit:4;stroke-dasharray:none;stroke-opacity:1"
     inkscape:connector-curvature="0"
     d="m 2.3897508,2.0614329 h 0.2598686 c 0.014311,0 0.025987,-0.011676 0.025987,-0.025987 V 1.7755774 c 0,-0.014311 -0.011676,-0.025987 -0.025987,-0.025987 H 2.3897508 c -0.014311,0 -0.025987,0.011676 -0.025987,0.025987 v 0.2598687 c 0,0.014311 0.011675,0.025987 0.025987,0.025987 z"
     class="fil0 str0"
     id="path1778" /><path
     style="fill:none;fill-rule:nonzero;stroke:#0000ff;stroke-width:0.00787402;stroke-linecap:round;stroke-linejoin:round;stroke-miterlimit:4;stroke-dasharray:none;stroke-opacity:1"
     inkscape:connector-curvature="0"
     d="m 2.7834517,2.0614329 h 0.2598685 c 0.014311,0 0.025987,-0.011676 0.025987,-0.025987 V 1.7755775 c 0,-0.014311 -0.011675,-0.025987 -0.025987,-0.025987 H 2.7834517 c -0.014312,0 -0.025987,0.011676 -0.025987,0.025987 V 2.035446 c 0,0.014311 0.011675,0.025987 0.025987,0.025987 z"
     class="fil0 str0"
     id="path1780" /><path
     id="path1782"
     class="fil0 str0"
     d="M 3.1771525,2.0614329 H 3.437021 c 0.014311,0 0.025987,-0.011676 0.025987,-0.025987 V 1.7755774 c 0,-0.014311 -0.011676,-0.025987 -0.025987,-0.025987 H 3.1771525 c -0.014312,0 -0.025987,0.011676 -0.025987,0.025987 v 0.2598687 c 0,0.014311 0.011675,0.025987 0.025987,0.025987 z"
     inkscape:connector-curvature="0"
     style="fill:none;fill-rule:nonzero;stroke:#0000ff;stroke-width:0.00787402;stroke-linecap:round;stroke-linejoin:round;stroke-miterlimit:4;stroke-dasharray:none;stroke-opacity:1" /><path
     id="path1784"
     class="fil0 str0"
     d="m 3.5708533,2.0614329 h 0.2598686 c 0.014311,0 0.025987,-0.011676 0.025987,-0.025987 V 1.7755774 c 0,-0.014311 -0.011676,-0.025987 -0.025987,-0.025987 H 3.5708533 c -0.014311,0 -0.025987,0.011676 -0.025987,0.025987 v 0.2598687 c 0,0.014311 0.011675,0.025987 0.025987,0.025987 z"
     inkscape:connector-curvature="0"
     style="fill:none;fill-rule:nonzero;stroke:#0000ff;stroke-width:0.00787402;stroke-linecap:round;stroke-linejoin:round;stroke-miterlimit:4;stroke-dasharray:none;stroke-opacity:1" /><path
     id="path1786"
     class="fil0 str0"
     d="m 3.9645542,2.0614329 h 0.2598685 c 0.014311,0 0.025987,-0.011676 0.025987,-0.025987 V 1.7755775 c 0,-0.014311 -0.011675,-0.025987 -0.025987,-0.025987 H 3.9645542 c -0.014312,0 -0.025987,0.011676 -0.025987,0.025987 V 2.035446 c 0,0.014311 0.011675,0.025987 0.025987,0.025987 z"
     inkscape:connector-curvature="0"
     style="fill:none;fill-rule:nonzero;stroke:#0000ff;stroke-width:0.00787402;stroke-linecap:round;stroke-linejoin:round;stroke-miterlimit:4;stroke-dasharray:none;stroke-opacity:1" /><path
     id="path1790"
     class="fil0 str0"
     d="m 0.4212469,1.6677321 h 0.25986852 c 0.014311,0 0.025987,-0.011676 0.025987,-0.025987 V 1.3818767 c 0,-0.014311 -0.011675,-0.025987 -0.025987,-0.025987 H 0.4212469 c -0.0143116,0 -0.0259869,0.011676 -0.0259869,0.025987 v 0.2598685 c 0,0.014311 0.0116755,0.025987 0.0259869,0.025987 z"
     inkscape:connector-curvature="0"
     style="fill:none;fill-rule:nonzero;stroke:#0000ff;stroke-width:0.00787402;stroke-linecap:round;stroke-linejoin:round;stroke-miterlimit:4;stroke-dasharray:none;stroke-opacity:1" /><path
     id="path1810"
     class="fil0 str0"
     d="m 4.358255,1.6677321 h 0.2598685 c 0.014311,0 0.025987,-0.011676 0.025987,-0.025987 V 1.3818766 c 0,-0.014311 -0.011676,-0.025987 -0.025987,-0.025987 H 4.358255 c -0.014312,0 -0.025987,0.011676 -0.025987,0.025987 v 0.2598687 c 0,0.014311 0.011675,0.025987 0.025987,0.025987 z"
     inkscape:connector-curvature="0"
     style="fill:none;fill-rule:nonzero;stroke:#0000ff;stroke-width:0.00787402;stroke-linecap:round;stroke-linejoin:round;stroke-miterlimit:4;stroke-dasharray:none;stroke-opacity:1" /><rect
     style="opacity:1;fill:none;stroke:#0000ff;stroke-width:0.00786038;stroke-linecap:round;stroke-linejoin:round;stroke-miterlimit:4;stroke-dasharray:none;stroke-opacity:1"
     id="rect2639"
     width="0.30710024"
     height="3.4567065"
     x="0.39763096"
     y="1.7519617" /><rect
     y="1.7519617"
     x="4.3346391"
     height="3.4567065"
     width="0.30710024"
     id="rect2641"
     style="opacity:1;fill:none;stroke:#0000ff;stroke-width:0.00786038;stroke-linecap:round;stroke-linejoin:round;stroke-miterlimit:4;stroke-dasharray:none;stroke-opacity:1" /><rect
     style="opacity:1;fill:none;stroke:#0000ff;stroke-width:0.00787255;stroke-linecap:round;stroke-linejoin:round;stroke-miterlimit:4;stroke-dasharray:none;stroke-opacity:1"
     id="rect2643"
     width="3.4566944"
     height="0.30708808"
     x="0.79133785"
     y="1.3582669" /><g
     id="g109"
     transform="translate(0.0323163,0.00828415)"><path
       style="fill:none;fill-rule:nonzero;stroke:#0000ff;stroke-width:0.00787402;stroke-linecap:round;stroke-linejoin:round;stroke-miterlimit:4;stroke-dasharray:none;stroke-opacity:1"
       inkscape:connector-curvature="0"
       d="m 1.7668833,5.5964559 h 0.2598685 c 0.014312,0 0.025987,-0.011676 0.025987,-0.025987 V 5.3106005 c 0,-0.014311 -0.011675,-0.025987 -0.025987,-0.025987 H 1.7668833 c -0.014312,0 -0.025987,0.011676 -0.025987,0.025987 V 5.570469 c 0,0.014311 0.011675,0.025987 0.025987,0.025987 z"
       class="fil0 str0"
       id="path97" /><path
       id="path99"
       class="fil0 str0"
       d="m 2.1605841,5.5964559 h 0.2598686 c 0.014311,0 0.025987,-0.011676 0.025987,-0.025987 V 5.3106004 c 0,-0.014311 -0.011676,-0.025987 -0.025987,-0.025987 H 2.1605841 c -0.014311,0 -0.025987,0.011676 -0.025987,0.025987 v 0.2598687 c 0,0.014311 0.011675,0.025987 0.025987,0.025987 z"
       inkscape:connector-curvature="0"
       style="fill:none;fill-rule:nonzero;stroke:#0000ff;stroke-width:0.00787402;stroke-linecap:round;stroke-linejoin:round;stroke-miterlimit:4;stroke-dasharray:none;stroke-opacity:1" /><path
       id="path101"
       class="fil0 str0"
       d="m 2.554285,5.5964559 h 0.2598685 c 0.014311,0 0.025987,-0.011676 0.025987,-0.025987 V 5.3106005 c 0,-0.014311 -0.011675,-0.025987 -0.025987,-0.025987 H 2.554285 c -0.014312,0 -0.025987,0.011676 -0.025987,0.025987 V 5.570469 c 0,0.014311 0.011675,0.025987 0.025987,0.025987 z"
       inkscape:connector-curvature="0"
       style="fill:none;fill-rule:nonzero;stroke:#0000ff;stroke-width:0.00787402;stroke-linecap:round;stroke-linejoin:round;stroke-miterlimit:4;stroke-dasharray:none;stroke-opacity:1" /><path
       style="fill:none;fill-rule:nonzero;stroke:#0000ff;stroke-width:0.00787402;stroke-linecap:round;stroke-linejoin:round;stroke-miterlimit:4;stroke-dasharray:none;stroke-opacity:1"
       inkscape:connector-curvature="0"
       d="m 2.9479858,5.5964559 h 0.2598685 c 0.014311,0 0.025987,-0.011676 0.025987,-0.025987 V 5.3106004 c 0,-0.014311 -0.011676,-0.025987 -0.025987,-0.025987 H 2.9479858 c -0.014312,0 -0.025987,0.011676 -0.025987,0.025987 v 0.2598687 c 0,0.014311 0.011675,0.025987 0.025987,0.025987 z"
       class="fil0 str0"
       id="path103" /></g><rect
     style="opacity:1;fill:none;fill-opacity:1;stroke:#0000ff;stroke-width:0.00691483;stroke-linecap:round;stroke-linejoin:round;stroke-miterlimit:4;stroke-dasharray:none;stroke-opacity:1"
     id="rect111"
     width="1.280412"
     height="0.31280959"
     x="0.39715818"
     y="5.292418" /><rect
     y="5.2924099"
     x="3.3618002"
     height="0.31280959"
     width="1.280412"
     id="rect113"
     style="opacity:1;fill:none;fill-opacity:1;stroke:#0000ff;stroke-width:0.00691483;stroke-linecap:round;stroke-linejoin:round;stroke-miterlimit:4;stroke-dasharray:none;stroke-opacity:1" /></svg>