<?xml version="1.0" encoding="UTF-8" standalone="no"?>
<!-- Creator: CorelDRAW -->

<svg
   xmlns:dc="http://purl.org/dc/elements/1.1/"
   xmlns:cc="http://creativecommons.org/ns#"
   xmlns:rdf="http://www.w3.org/1999/02/22-rdf-syntax-ns#"
   xmlns:svg="http://www.w3.org/2000/svg"
   xmlns="http://www.w3.org/2000/svg"
   xmlns:sodipodi="http://sodipodi.sourceforge.net/DTD/sodipodi-0.dtd"
   xmlns:inkscape="http://www.inkscape.org/namespaces/inkscape"
   xml:space="preserve"
   width="18in"
   height="6in"
   style="shape-rendering:geometricPrecision; text-rendering:geometricPrecision; image-rendering:optimizeQuality; fill-rule:evenodd; clip-rule:evenodd"
   viewBox="0 0 18 6"
   version="1.1"
   enable-background="new 0 0 86.4 86.4"
   id="svg7884"
   sodipodi:docname="wordclock_box.svg"
   inkscape:version="0.92.2 5c3e80d, 2017-08-06"><metadata
     id="metadata7888"><rdf:RDF><cc:Work
         rdf:about=""><dc:format>image/svg+xml</dc:format><dc:type
           rdf:resource="http://purl.org/dc/dcmitype/StillImage" /></cc:Work></rdf:RDF></metadata><sodipodi:namedview
     pagecolor="#ffffff"
     bordercolor="#666666"
     borderopacity="1"
     objecttolerance="10"
     gridtolerance="10"
     guidetolerance="10"
     inkscape:pageopacity="0"
     inkscape:pageshadow="2"
     inkscape:window-width="1419"
     inkscape:window-height="801"
     id="namedview7886"
     showgrid="false"
     showguides="true"
     inkscape:guide-bbox="true"
     inkscape:zoom="1"
     inkscape:cx="909.875"
     inkscape:cy="224.85995"
     inkscape:window-x="0"
     inkscape:window-y="0"
     inkscape:window-maximized="0"
     inkscape:current-layer="svg7884"><sodipodi:guide
       position="17.260417,2.8020833"
       orientation="1,0"
       id="guide13021"
       inkscape:locked="false" /></sodipodi:namedview><defs
     id="defs7642"><style
       type="text/css"
       id="style7640"><![CDATA[
    .str0 {stroke:#1F1A17;stroke-width:0.003}
    .str1 {stroke:#1F1A17;stroke-width:0.003;stroke-linecap:round;stroke-linejoin:round}
    .str2 {stroke:#1F1A17;stroke-width:0.003;stroke-linecap:round;stroke-linejoin:round}
    .fil0 {fill:none}
    .fil1 {fill:none;fill-rule:nonzero}
   ]]></style></defs><polyline
     style="fill:none;stroke:#1f1a17;stroke-width:0.003"
     id="polyline7645"
     points="5.40313,4.33657 5.40313,2.68657 2.10313,2.68657 2.10313,4.33657 "
     class="fil0 str0" /><g
     id="_179278392"><path
       style="fill:none;stroke:#1f1a17;stroke-width:0.003;stroke-linecap:round;stroke-linejoin:round"
       inkscape:connector-curvature="0"
       d="m 2.24063,3.57157 c -0.03313,0 -0.06,-0.02687 -0.06,-0.06 0,-0.03313 0.02687,-0.06 0.06,-0.06 0.03313,0 0.06,0.02687 0.06,0.06 0,0.03313 -0.02687,0.06 -0.06,0.06 z"
       class="fil0 str1"
       id="_189870192" /><g
       id="g7654"><g
         id="g7650"><polyline
           style="fill:none;stroke:#1f1a17;stroke-width:0.003;stroke-linecap:round;stroke-linejoin:round"
           points="2.30313,3.88657 2.17813,3.88657 2.17813,3.63657 2.30313,3.63657 "
           class="fil0 str1"
           id="_178724216" /><polyline
           style="fill:none;stroke:#1f1a17;stroke-width:0.003;stroke-linecap:round;stroke-linejoin:round"
           points="2.30313,3.38657 2.17813,3.38657 2.17813,3.13657 2.30313,3.13657 "
           class="fil0 str1"
           id="_245583408" /></g><line
         style="fill:none;stroke:#1f1a17;stroke-width:0.003;stroke-linecap:round;stroke-linejoin:round"
         y2="3.63657"
         x2="2.3031299"
         y1="3.88657"
         x1="2.3031299"
         class="fil0 str1"
         id="_244672392" /><line
         style="fill:none;stroke:#1f1a17;stroke-width:0.003;stroke-linecap:round;stroke-linejoin:round"
         y2="3.13657"
         x2="2.3031299"
         y1="3.38657"
         x1="2.3031299"
         class="fil0 str1"
         id="_179278416" /></g></g><g
     id="_242728496"><path
       style="fill:none;stroke:#1f1a17;stroke-width:0.003;stroke-linecap:round;stroke-linejoin:round"
       inkscape:connector-curvature="0"
       d="m 5.26563,3.57157 c -0.03313,0 -0.06,-0.02687 -0.06,-0.06 0,-0.03313 0.02687,-0.06 0.06,-0.06 0.03313,0 0.06,0.02687 0.06,0.06 0,0.03313 -0.02687,0.06 -0.06,0.06 z"
       class="fil0 str1"
       id="_236978320" /><g
       id="g7664"><g
         id="g7660"><polyline
           style="fill:none;stroke:#1f1a17;stroke-width:0.003;stroke-linecap:round;stroke-linejoin:round"
           points="5.32813,3.88657 5.20313,3.88657 5.20313,3.63657 5.32813,3.63657 "
           class="fil0 str1"
           id="_187333264" /><polyline
           style="fill:none;stroke:#1f1a17;stroke-width:0.003;stroke-linecap:round;stroke-linejoin:round"
           points="5.32813,3.38657 5.20313,3.38657 5.20313,3.13657 5.32813,3.13657 "
           class="fil0 str1"
           id="_174300240" /></g><line
         style="fill:none;stroke:#1f1a17;stroke-width:0.003;stroke-linecap:round;stroke-linejoin:round"
         y2="3.63657"
         x2="5.3281298"
         y1="3.88657"
         x1="5.3281298"
         class="fil0 str1"
         id="_79646280" /><line
         style="fill:none;stroke:#1f1a17;stroke-width:0.003;stroke-linecap:round;stroke-linejoin:round"
         y2="3.13657"
         x2="5.3281298"
         y1="3.38657"
         x1="5.3281298"
         class="fil0 str1"
         id="_190269048" /></g></g><line
     style="fill:none;stroke:#1f1a17;stroke-width:0.003"
     id="line7667"
     y2="4.3365698"
     x2="2.1031301"
     y1="4.3365698"
     x1="5.4031301"
     class="fil0 str0" /><path
     style="fill:none;stroke:#1f1a17;stroke-width:0.003;stroke-linecap:round;stroke-linejoin:round"
     inkscape:connector-curvature="0"
     id="path7669"
     d="m 4.32813,3.98657 v 0.13 h -0.25 v -0.13 m 0.25,0 h -0.25"
     class="fil0 str1" /><g
     id="_182142016"><path
       style="fill:none;stroke:#1f1a17;stroke-width:0.003;stroke-linecap:round;stroke-linejoin:round"
       inkscape:connector-curvature="0"
       d="m 3.7977,2.82407 c 0,0.03313 -0.02687,0.06 -0.06,0.06 -0.03313,0 -0.06,-0.02687 -0.06,-0.06 0,-0.03313 0.02687,-0.06 0.06,-0.06 0.03313,0 0.06,0.02687 0.06,0.06 z"
       class="fil0 str1"
       id="_185436984" /><g
       id="g7678"><g
         id="g7674"><polyline
           style="fill:none;stroke:#1f1a17;stroke-width:0.003;stroke-linecap:round;stroke-linejoin:round"
           points="4.1127,2.76157 4.1127,2.88657 3.8627,2.88657 3.8627,2.76157 "
           class="fil0 str1"
           id="_245765088" /><polyline
           style="fill:none;stroke:#1f1a17;stroke-width:0.003;stroke-linecap:round;stroke-linejoin:round"
           points="3.6127,2.76157 3.6127,2.88657 3.3627,2.88657 3.3627,2.76157 "
           class="fil0 str1"
           id="_176753776" /></g><line
         style="fill:none;stroke:#1f1a17;stroke-width:0.003;stroke-linecap:round;stroke-linejoin:round"
         y2="2.76157"
         x2="3.8627"
         y1="2.76157"
         x1="4.1127"
         class="fil0 str1"
         id="_184861672" /><line
         style="fill:none;stroke:#1f1a17;stroke-width:0.003;stroke-linecap:round;stroke-linejoin:round"
         y2="2.76157"
         x2="3.3627"
         y1="2.76157"
         x1="3.6127"
         class="fil0 str1"
         id="_233829576" /></g></g><polyline
     style="fill:none;stroke:#1f1a17;stroke-width:0.003"
     id="polyline7681"
     points="5.40313,2.58657 5.40313,0.936571 2.10313,0.936571 2.10313,2.58657 "
     class="fil0 str0" /><g
     id="_238608360"><circle
       style="fill:none;stroke:#1f1a17;stroke-width:0.003;stroke-linecap:round;stroke-linejoin:round"
       r="0.059999999"
       cy="1.76157"
       cx="2.2406299"
       class="fil0 str1"
       id="_252497368" /><g
       id="g7690"><g
         id="g7686"><polyline
           style="fill:none;stroke:#1f1a17;stroke-width:0.003;stroke-linecap:round;stroke-linejoin:round"
           points="2.30313,2.13657 2.17813,2.13657 2.17813,1.88657 2.30313,1.88657 "
           class="fil0 str1"
           id="_182501144" /><polyline
           style="fill:none;stroke:#1f1a17;stroke-width:0.003;stroke-linecap:round;stroke-linejoin:round"
           points="2.30313,1.63657 2.17813,1.63657 2.17813,1.38657 2.30313,1.38657 "
           class="fil0 str1"
           id="_184132432" /></g><line
         style="fill:none;stroke:#1f1a17;stroke-width:0.003;stroke-linecap:round;stroke-linejoin:round"
         y2="1.88657"
         x2="2.3031299"
         y1="2.13657"
         x1="2.3031299"
         class="fil0 str1"
         id="_78662448" /><line
         style="fill:none;stroke:#1f1a17;stroke-width:0.003;stroke-linecap:round;stroke-linejoin:round"
         y2="1.38657"
         x2="2.3031299"
         y1="1.63657"
         x1="2.3031299"
         class="fil0 str1"
         id="_185438704" /></g></g><g
     id="_236716424"><circle
       style="fill:none;stroke:#1f1a17;stroke-width:0.003;stroke-linecap:round;stroke-linejoin:round"
       r="0.059999999"
       cy="1.76157"
       cx="5.2656298"
       class="fil0 str1"
       id="_185484504" /><g
       id="g7700"><g
         id="g7696"><polyline
           style="fill:none;stroke:#1f1a17;stroke-width:0.003;stroke-linecap:round;stroke-linejoin:round"
           points="5.32813,2.13657 5.20313,2.13657 5.20313,1.88657 5.32813,1.88657 "
           class="fil0 str1"
           id="_185576680" /><polyline
           style="fill:none;stroke:#1f1a17;stroke-width:0.003;stroke-linecap:round;stroke-linejoin:round"
           points="5.32813,1.63657 5.20313,1.63657 5.20313,1.38657 5.32813,1.38657 "
           class="fil0 str1"
           id="_186536936" /></g><line
         style="fill:none;stroke:#1f1a17;stroke-width:0.003;stroke-linecap:round;stroke-linejoin:round"
         y2="1.88657"
         x2="5.3281298"
         y1="2.13657"
         x1="5.3281298"
         class="fil0 str1"
         id="_82574344" /><line
         style="fill:none;stroke:#1f1a17;stroke-width:0.003;stroke-linecap:round;stroke-linejoin:round"
         y2="1.38657"
         x2="5.3281298"
         y1="1.63657"
         x1="5.3281298"
         class="fil0 str1"
         id="_236568000" /></g></g><line
     style="fill:none;stroke:#1f1a17;stroke-width:0.003"
     id="line7703"
     y2="2.58657"
     x2="2.1031301"
     y1="2.58657"
     x1="5.4031301"
     class="fil0 str0" /><path
     style="fill:none;stroke:#1f1a17;stroke-width:0.003;stroke-linecap:round;stroke-linejoin:round"
     inkscape:connector-curvature="0"
     id="path7705"
     d="m 3.42813,2.23657 v 0.13 h -0.25 v -0.13 m 0.25,0 h -0.25"
     class="fil0 str1" /><g
     id="_79710256"><circle
       style="fill:none;stroke:#1f1a17;stroke-width:0.003;stroke-linecap:round;stroke-linejoin:round"
       cy="0"
       cx="0"
       r="0.160465"
       transform="matrix(0,0.373914,-0.373914,0,3.7377,1.07407)"
       class="fil0 str1"
       id="_252497488" /><g
       id="g7714"><g
         id="g7710"><polyline
           style="fill:none;stroke:#1f1a17;stroke-width:0.003;stroke-linecap:round;stroke-linejoin:round"
           points="4.1127,1.01157 4.1127,1.13657 3.8627,1.13657 3.8627,1.01157 "
           class="fil0 str1"
           id="_241194608" /><polyline
           style="fill:none;stroke:#1f1a17;stroke-width:0.003;stroke-linecap:round;stroke-linejoin:round"
           points="3.6127,1.01157 3.6127,1.13657 3.3627,1.13657 3.3627,1.01157 "
           class="fil0 str1"
           id="_250404296" /></g><line
         style="fill:none;stroke:#1f1a17;stroke-width:0.003;stroke-linecap:round;stroke-linejoin:round"
         y2="1.01157"
         x2="3.8627"
         y1="1.01157"
         x1="4.1127"
         class="fil0 str1"
         id="_179344720" /><line
         style="fill:none;stroke:#1f1a17;stroke-width:0.003;stroke-linecap:round;stroke-linejoin:round"
         y2="1.01157"
         x2="3.3627"
         y1="1.01157"
         x1="3.6127"
         class="fil0 str1"
         id="_182704248" /></g></g><path
     style="fill:none;stroke:#1f1a17;stroke-width:0.003"
     inkscape:connector-curvature="0"
     id="path7717"
     d="M 2.44527,1.42176 V 1.188425 c 0,-0.03213 0.024705,-0.058335 0.055,-0.058335 h 0.44 c 0.030295,0 0.055,0.026205 0.055,0.058335 V 1.42176 c 0,0.03213 -0.024705,0.058331 -0.055,0.058331 h -0.44 c -0.030295,0 -0.055,-0.026201 -0.055,-0.058331 z"
     class="fil0 str0" /><g
     id="g13104"
     transform="translate(2.09375,0.15625)"><g
       style="stroke-width:0.00787402;stroke-miterlimit:4;stroke-dasharray:none"
       transform="translate(-0.01229002,-0.74828333)"
       id="g7763"><g
         style="stroke-width:0.00787402;stroke-miterlimit:4;stroke-dasharray:none"
         id="g7726"><polyline
           transform="translate(-1.0380554e-5,0.95549002)"
           style="fill:none;fill-rule:nonzero;stroke:#1f1a17;stroke-width:0.00787402;stroke-linecap:round;stroke-linejoin:round;stroke-miterlimit:4;stroke-dasharray:none"
           points="13.5998,3.62949 13.4116,3.62949 13.4116,3.55666 13.2987,3.55666 13.2987,3.62949 13.2046,3.62949 13.2046,3.73973 13.2987,3.73973 13.2987,3.81257 13.4116,3.81257 13.4116,3.73973 13.5998,3.73973 "
           class="fil1 str2"
           id="_80153840" /><g
           style="stroke-width:0.00787402;stroke-miterlimit:4;stroke-dasharray:none"
           id="g7722"><polyline
             transform="translate(-1.0380554e-5,0.95549002)"
             style="fill:none;stroke:#1f1a17;stroke-width:0.00787402;stroke-linecap:round;stroke-linejoin:round;stroke-miterlimit:4;stroke-dasharray:none"
             points="13.5998,4.05962 13.7194,4.05962 13.7194,3.80962 13.5998,3.80962 "
             class="fil0 str1"
             id="_236649952" /><polyline
             transform="translate(-1.0380554e-5,0.95549002)"
             style="fill:none;stroke:#1f1a17;stroke-width:0.00787402;stroke-linecap:round;stroke-linejoin:round;stroke-miterlimit:4;stroke-dasharray:none"
             points="13.5998,3.55962 13.7194,3.55962 13.7194,3.30962 13.5998,3.30962 "
             class="fil0 str1"
             id="_242370400" /></g><line
           style="fill:none;stroke:#1f1a17;stroke-width:0.00787402;stroke-linecap:round;stroke-linejoin:round;stroke-miterlimit:4;stroke-dasharray:none"
           y2="4.58498"
           x2="13.59979"
           y1="4.51511"
           x1="13.59979"
           class="fil0 str1"
           id="_240519928" /><line
           style="fill:none;stroke:#1f1a17;stroke-width:0.00787402;stroke-linecap:round;stroke-linejoin:round;stroke-miterlimit:4;stroke-dasharray:none"
           y2="4.76511"
           x2="13.59979"
           y1="4.69522"
           x1="13.59979"
           class="fil0 str1"
           id="_233495296" /></g><g
         style="stroke-width:0.00787402;stroke-miterlimit:4;stroke-dasharray:none"
         id="g7735"><g
           style="stroke-width:0.00787402;stroke-miterlimit:4;stroke-dasharray:none"
           id="g7731" /><g
           style="stroke-width:0.00787402;stroke-miterlimit:4;stroke-dasharray:none"
           id="g12476"><polyline
             transform="translate(1.0986328e-7,0.52646773)"
             id="_83883368"
             class="fil1 str2"
             points="13.5998,1.58167 13.4116,1.58167 13.4116,1.50884 13.2987,1.50884 13.2987,1.58167 13.2046,1.58167 13.2046,1.69191 13.2987,1.69191 13.2987,1.76475 13.4116,1.76475 13.4116,1.69191 13.5998,1.69191 "
             style="fill:none;fill-rule:nonzero;stroke:#1f1a17;stroke-width:0.00787402;stroke-linecap:round;stroke-linejoin:round;stroke-miterlimit:4;stroke-dasharray:none" /><polyline
             transform="translate(1.0986328e-7,0.52646773)"
             id="_178739248"
             class="fil0 str1"
             points="13.5998,2.0118 13.7194,2.0118 13.7194,1.7618 13.5998,1.7618 "
             style="clip-rule:evenodd;fill:none;fill-rule:evenodd;stroke:#1f1a17;stroke-width:0.00787402;stroke-linecap:round;stroke-linejoin:round;stroke-miterlimit:4;stroke-dasharray:none;image-rendering:optimizeQuality;shape-rendering:geometricPrecision;text-rendering:geometricPrecision" /><polyline
             transform="translate(1.0986328e-7,0.52646773)"
             id="_81917456"
             class="fil0 str1"
             points="13.5998,1.5118 13.7194,1.5118 13.7194,1.2618 13.5998,1.2618 "
             style="clip-rule:evenodd;fill:none;fill-rule:evenodd;stroke:#1f1a17;stroke-width:0.00787402;stroke-linecap:round;stroke-linejoin:round;stroke-miterlimit:4;stroke-dasharray:none;image-rendering:optimizeQuality;shape-rendering:geometricPrecision;text-rendering:geometricPrecision" /><line
             id="_186171896"
             class="fil0 str1"
             x1="13.599799"
             y1="2.0382676"
             x2="13.599799"
             y2="2.1081376"
             style="fill:none;stroke:#1f1a17;stroke-width:0.00787402;stroke-linecap:round;stroke-linejoin:round;stroke-miterlimit:4;stroke-dasharray:none" /></g><line
           style="fill:none;stroke:#1f1a17;stroke-width:0.00787402;stroke-linecap:round;stroke-linejoin:round;stroke-miterlimit:4;stroke-dasharray:none"
           y2="2.2882676"
           x2="13.599799"
           y1="2.2183776"
           x1="13.599799"
           class="fil0 str1"
           id="_189658704" /></g><line
         style="fill:none;stroke:#1f1a17;stroke-width:0.00787402;stroke-miterlimit:4;stroke-dasharray:none"
         y2="5.01511"
         x2="13.59979"
         y1="5.6056609"
         x1="13.59979"
         class="fil0 str0"
         id="_86581440" /><path
         style="fill:none;stroke:#1f1a17;stroke-width:0.00787402;stroke-miterlimit:4;stroke-dasharray:none"
         inkscape:connector-curvature="0"
         d="m 11.94979,5.6056609 h 0.449531 m 0.250315,0 h 0.06998 m 0.110378,0 h 0.06996 m 0.250315,0 h 0.449521"
         class="fil0 str0"
         id="_175279920" /><line
         style="fill:none;stroke:#1f1a17;stroke-width:0.00787402;stroke-miterlimit:4;stroke-dasharray:none"
         y2="5.6056609"
         x2="11.94979"
         y1="1.1962"
         x1="11.94979"
         class="fil0 str0"
         id="_188121920" /><line
         style="fill:none;stroke:#1f1a17;stroke-width:0.00787402;stroke-miterlimit:4;stroke-dasharray:none"
         y2="1.1977155"
         x2="13.5998"
         y1="1.7882677"
         x1="13.5998"
         class="fil0 str0"
         id="_82479048" /><line
         style="fill:none;stroke:#1f1a17;stroke-width:0.00787402;stroke-miterlimit:4;stroke-dasharray:none"
         y2="2.5382676"
         x2="13.5998"
         y1="4.263526"
         x1="13.5998"
         class="fil0 str0"
         id="_241652072" /><g
         style="stroke-width:0.00787402;stroke-miterlimit:4;stroke-dasharray:none"
         id="g7749"><polyline
           transform="translate(-9.9990845e-6,1.4800712)"
           style="fill:none;fill-rule:nonzero;stroke:#1f1a17;stroke-width:0.00787402;stroke-linecap:round;stroke-linejoin:round;stroke-miterlimit:4;stroke-dasharray:none"
           points="12.83,4.12558 12.83,3.93738 12.903,3.93738 12.903,3.82444 12.83,3.82444 12.83,3.73032 12.7197,3.73032 12.7197,3.82444 12.6467,3.82444 12.6467,3.93738 12.7197,3.93738 12.7197,4.12558 "
           class="fil1 str2"
           id="_176459600" /><g
           style="stroke-width:0.00787402;stroke-miterlimit:4;stroke-dasharray:none"
           id="g7745"><polyline
             transform="translate(-9.9990845e-6,1.4800712)"
             style="fill:none;stroke:#1f1a17;stroke-width:0.00787402;stroke-linecap:round;stroke-linejoin:round;stroke-miterlimit:4;stroke-dasharray:none"
             points="12.3994,4.12559 12.3994,4.24511 12.6497,4.24511 12.6497,4.12559 "
             class="fil0 str1"
             id="_184000288" /><polyline
             transform="translate(-9.9990845e-6,1.4800712)"
             style="fill:none;stroke:#1f1a17;stroke-width:0.00787402;stroke-linecap:round;stroke-linejoin:round;stroke-miterlimit:4;stroke-dasharray:none"
             points="12.9,4.12559 12.9,4.24511 13.1503,4.24511 13.1503,4.12559 "
             class="fil0 str1"
             id="_183088920" /></g></g><g
         style="stroke-width:0.00787402;stroke-miterlimit:4;stroke-dasharray:none"
         id="g7761"><path
           style="fill:none;stroke:#1f1a17;stroke-width:0.00787402;stroke-miterlimit:4;stroke-dasharray:none"
           inkscape:connector-curvature="0"
           d="m 13.5998,1.1962 h -0.449531 m -0.250315,0 h -0.06998 m -0.110378,0 h -0.06996 m -0.250315,0 H 11.94979"
           class="fil0 str0"
           id="_51699680" /><g
           style="stroke-width:0.00787402;stroke-miterlimit:4;stroke-dasharray:none"
           id="g7759"><polyline
             style="fill:none;fill-rule:nonzero;stroke:#1f1a17;stroke-width:0.00787402;stroke-linecap:round;stroke-linejoin:round;stroke-miterlimit:4;stroke-dasharray:none"
             points="12.7196,1.1962 12.7196,1.38441 12.6467,1.38441 12.6467,1.49734 12.7196,1.49734 12.7196,1.59146 12.83,1.59146 12.83,1.49734 12.9029,1.49734 12.9029,1.38441 12.83,1.38441 12.83,1.1962 "
             class="fil1 str2"
             id="_186458792" /><g
             style="stroke-width:0.00787402;stroke-miterlimit:4;stroke-dasharray:none"
             id="g7755"><polyline
               style="fill:none;stroke:#1f1a17;stroke-width:0.00787402;stroke-linecap:round;stroke-linejoin:round;stroke-miterlimit:4;stroke-dasharray:none"
               points="13.1503,1.1962 13.1503,1.07668 12.9,1.07668 12.9,1.1962 "
               class="fil0 str1"
               id="_175126792" /><polyline
               style="fill:none;stroke:#1f1a17;stroke-width:0.00787402;stroke-linecap:round;stroke-linejoin:round;stroke-miterlimit:4;stroke-dasharray:none"
               points="12.6497,1.1962 12.6497,1.07668 12.3994,1.07668 12.3994,1.1962 "
               class="fil0 str1"
               id="_188839520" /></g></g></g></g><g
       style="stroke-width:0.00787402;stroke-miterlimit:4;stroke-dasharray:none"
       transform="translate(-0.01233375,-0.00824283)"
       id="g7771"><g
         style="stroke-width:0.00787402;stroke-miterlimit:4;stroke-dasharray:none"
         id="g7767"><polyline
           style="fill:none;stroke:#1f1a17;stroke-width:0.00787402;stroke-linecap:round;stroke-linejoin:round;stroke-miterlimit:4;stroke-dasharray:none"
           points="12.0248,2.28589 12.1498,2.28589 12.1498,2.53589 12.0248,2.53589 "
           class="fil0 str1"
           id="_250735608" /><polyline
           style="fill:none;stroke:#1f1a17;stroke-width:0.00787402;stroke-linecap:round;stroke-linejoin:round;stroke-miterlimit:4;stroke-dasharray:none"
           points="12.0248,2.78589 12.1498,2.78589 12.1498,3.03589 12.0248,3.03589 "
           class="fil0 str1"
           id="_178324296" /></g><line
         style="fill:none;stroke:#1f1a17;stroke-width:0.00787402;stroke-linecap:round;stroke-linejoin:round;stroke-miterlimit:4;stroke-dasharray:none"
         y2="2.5358901"
         x2="12.0248"
         y1="2.2858901"
         x1="12.0248"
         class="fil0 str1"
         id="_51774216" /><line
         style="fill:none;stroke:#1f1a17;stroke-width:0.00787402;stroke-linecap:round;stroke-linejoin:round;stroke-miterlimit:4;stroke-dasharray:none"
         y2="3.0358901"
         x2="12.0248"
         y1="2.7858901"
         x1="12.0248"
         class="fil0 str1"
         id="_237625952" /></g></g><g
     id="g7818"
     transform="translate(2.0833333,0.11458333)"><g
       id="g7781"><polyline
         id="_185962584"
         class="fil1 str2"
         points="15.5198,3.62949 15.3316,3.62949 15.3316,3.55666 15.2187,3.55666 15.2187,3.62949 15.1246,3.62949 15.1246,3.73973 15.2187,3.73973 15.2187,3.81257 15.3316,3.81257 15.3316,3.73973 15.5198,3.73973 "
         style="fill:none;fill-rule:nonzero;stroke:#1f1a17;stroke-width:0.003;stroke-linecap:round;stroke-linejoin:round" /><g
         id="g7777"><polyline
           id="_179026024"
           class="fil0 str1"
           points="15.5198,4.05962 15.6394,4.05962 15.6394,3.80962 15.5198,3.80962 "
           style="fill:none;stroke:#1f1a17;stroke-width:0.003;stroke-linecap:round;stroke-linejoin:round" /><polyline
           id="_83546064"
           class="fil0 str1"
           points="15.5198,3.55962 15.6394,3.55962 15.6394,3.30962 15.5198,3.30962 "
           style="fill:none;stroke:#1f1a17;stroke-width:0.003;stroke-linecap:round;stroke-linejoin:round" /></g><line
         id="_184417168"
         class="fil0 str1"
         x1="15.5198"
         y1="3.5596199"
         x2="15.5198"
         y2="3.6294899"
         style="fill:none;stroke:#1f1a17;stroke-width:0.003;stroke-linecap:round;stroke-linejoin:round" /><line
         id="_184270624"
         class="fil0 str1"
         x1="15.5198"
         y1="3.7397299"
         x2="15.5198"
         y2="3.8096199"
         style="fill:none;stroke:#1f1a17;stroke-width:0.003;stroke-linecap:round;stroke-linejoin:round" /></g><g
       id="g7790"><polyline
         id="_252298712"
         class="fil1 str2"
         points="15.5198,1.58167 15.3316,1.58167 15.3316,1.50884 15.2187,1.50884 15.2187,1.58167 15.1246,1.58167 15.1246,1.69191 15.2187,1.69191 15.2187,1.76475 15.3316,1.76475 15.3316,1.69191 15.5198,1.69191 "
         style="fill:none;fill-rule:nonzero;stroke:#1f1a17;stroke-width:0.003;stroke-linecap:round;stroke-linejoin:round" /><g
         id="g7786"><polyline
           id="_187613256"
           class="fil0 str1"
           points="15.5198,2.0118 15.6394,2.0118 15.6394,1.7618 15.5198,1.7618 "
           style="fill:none;stroke:#1f1a17;stroke-width:0.003;stroke-linecap:round;stroke-linejoin:round" /><polyline
           id="_185230968"
           class="fil0 str1"
           points="15.5198,1.5118 15.6394,1.5118 15.6394,1.2618 15.5198,1.2618 "
           style="fill:none;stroke:#1f1a17;stroke-width:0.003;stroke-linecap:round;stroke-linejoin:round" /></g><line
         id="_252467160"
         class="fil0 str1"
         x1="15.5198"
         y1="1.5118001"
         x2="15.5198"
         y2="1.58167"
         style="fill:none;stroke:#1f1a17;stroke-width:0.003;stroke-linecap:round;stroke-linejoin:round" /><line
         id="_185962920"
         class="fil0 str1"
         x1="15.5198"
         y1="1.69191"
         x2="15.5198"
         y2="1.7618001"
         style="fill:none;stroke:#1f1a17;stroke-width:0.003;stroke-linecap:round;stroke-linejoin:round" /></g><line
       id="_183480264"
       class="fil0 str0"
       x1="15.5198"
       y1="4.1255898"
       x2="15.5198"
       y2="4.0596099"
       style="fill:none;stroke:#1f1a17;stroke-width:0.003" /><path
       id="_250116752"
       class="fil0 str0"
       d="m 13.8698,4.12559 h 0.449531 m 0.250315,0 h 0.06998 m 0.110378,0 h 0.06996 m 0.250315,0 H 15.5198"
       inkscape:connector-curvature="0"
       style="fill:none;stroke:#1f1a17;stroke-width:0.003" /><line
       id="_186133664"
       class="fil0 str0"
       x1="13.8698"
       y1="1.1962"
       x2="13.8698"
       y2="4.1255898"
       style="fill:none;stroke:#1f1a17;stroke-width:0.00787402;stroke-miterlimit:4;stroke-dasharray:none" /><line
       id="_238559072"
       class="fil0 str0"
       x1="15.5198"
       y1="1.2618001"
       x2="15.5198"
       y2="1.1962"
       style="fill:none;stroke:#1f1a17;stroke-width:0.003" /><line
       id="_85469976"
       class="fil0 str0"
       x1="15.5198"
       y1="3.3096199"
       x2="15.5198"
       y2="2.0118001"
       style="fill:none;stroke:#1f1a17;stroke-width:0.003" /><g
       id="g7804"><polyline
         id="_188608680"
         class="fil1 str2"
         points="14.75,4.12558 14.75,3.93738 14.823,3.93738 14.823,3.82444 14.75,3.82444 14.75,3.73032 14.6397,3.73032 14.6397,3.82444 14.5667,3.82444 14.5667,3.93738 14.6397,3.93738 14.6397,4.12558 "
         style="fill:none;fill-rule:nonzero;stroke:#1f1a17;stroke-width:0.003;stroke-linecap:round;stroke-linejoin:round" /><g
         id="g7800"><polyline
           id="_233774960"
           class="fil0 str1"
           points="14.3194,4.12559 14.3194,4.24511 14.5697,4.24511 14.5697,4.12559 "
           style="fill:none;stroke:#1f1a17;stroke-width:0.003;stroke-linecap:round;stroke-linejoin:round" /><polyline
           id="_178606040"
           class="fil0 str1"
           points="14.82,4.12559 14.82,4.24511 15.0703,4.24511 15.0703,4.12559 "
           style="fill:none;stroke:#1f1a17;stroke-width:0.003;stroke-linecap:round;stroke-linejoin:round" /></g><line
         id="_190059776"
         class="fil0 str1"
         x1="14.82"
         y1="4.1255898"
         x2="14.75"
         y2="4.1255898"
         style="fill:none;stroke:#1f1a17;stroke-width:0.003;stroke-linecap:round;stroke-linejoin:round" /><line
         id="_175103088"
         class="fil0 str1"
         x1="14.6397"
         y1="4.1255898"
         x2="14.5697"
         y2="4.1255898"
         style="fill:none;stroke:#1f1a17;stroke-width:0.003;stroke-linecap:round;stroke-linejoin:round" /></g><g
       id="g7816"><path
         id="_84431544"
         class="fil0 str0"
         d="m 15.5198,1.1962 h -0.449531 m -0.250315,0 h -0.06998 m -0.110378,0 h -0.06996 m -0.250315,0 H 13.86979"
         inkscape:connector-curvature="0"
         style="fill:none;stroke:#1f1a17;stroke-width:0.00787402;stroke-miterlimit:4;stroke-dasharray:none" /><g
         id="g7814"><polyline
           id="_78858384"
           class="fil1 str2"
           points="14.6396,1.1962 14.6396,1.38441 14.5667,1.38441 14.5667,1.49734 14.6396,1.49734 14.6396,1.59146 14.75,1.59146 14.75,1.49734 14.8229,1.49734 14.8229,1.38441 14.75,1.38441 14.75,1.1962 "
           style="fill:none;fill-rule:nonzero;stroke:#1f1a17;stroke-width:0.003;stroke-linecap:round;stroke-linejoin:round" /><g
           id="g7810"><polyline
             id="_79783720"
             class="fil0 str1"
             points="15.0703,1.1962 15.0703,1.07668 14.82,1.07668 14.82,1.1962 "
             style="fill:none;stroke:#1f1a17;stroke-width:0.003;stroke-linecap:round;stroke-linejoin:round" /><polyline
             id="_239974736"
             class="fil0 str1"
             points="14.5697,1.1962 14.5697,1.07668 14.3194,1.07668 14.3194,1.1962 "
             style="fill:none;stroke:#1f1a17;stroke-width:0.003;stroke-linecap:round;stroke-linejoin:round" /></g><line
           id="_188873624"
           class="fil0 str1"
           x1="14.5697"
           y1="1.1962"
           x2="14.6396"
           y2="1.1962"
           style="fill:none;stroke:#1f1a17;stroke-width:0.003;stroke-linecap:round;stroke-linejoin:round" /><line
           id="_80162024"
           class="fil0 str1"
           x1="14.75"
           y1="1.1962"
           x2="14.82"
           y2="1.1962"
           style="fill:none;stroke:#1f1a17;stroke-width:0.003;stroke-linecap:round;stroke-linejoin:round" /></g></g></g><g
     id="g7826"
     transform="translate(2.0833333,0.11458333)"><g
       id="g7822"><polyline
         id="_182999104"
         class="fil0 str1"
         points="13.9448,2.28589 14.0698,2.28589 14.0698,2.53589 13.9448,2.53589 "
         style="fill:none;stroke:#1f1a17;stroke-width:0.003;stroke-linecap:round;stroke-linejoin:round" /><polyline
         id="_178638904"
         class="fil0 str1"
         points="13.9448,2.78589 14.0698,2.78589 14.0698,3.03589 13.9448,3.03589 "
         style="fill:none;stroke:#1f1a17;stroke-width:0.003;stroke-linecap:round;stroke-linejoin:round" /></g><line
       id="_82153432"
       class="fil0 str1"
       x1="13.9448"
       y1="2.2858901"
       x2="13.9448"
       y2="2.5358901"
       style="fill:none;stroke:#1f1a17;stroke-width:0.003;stroke-linecap:round;stroke-linejoin:round" /><line
       id="_188985752"
       class="fil0 str1"
       x1="13.9448"
       y1="2.7858901"
       x2="13.9448"
       y2="3.0358901"
       style="fill:none;stroke:#1f1a17;stroke-width:0.003;stroke-linecap:round;stroke-linejoin:round" /></g><g
     id="_188985944"><g
       id="g7857"><circle
         style="fill:none;stroke:#1f1a17;stroke-width:0.003"
         r="0.055"
         cy="3.7116399"
         cx="7.41078"
         class="fil0 str0"
         id="_255341416" /><circle
         style="fill:none;stroke:#1f1a17;stroke-width:0.003"
         r="0.055"
         cy="3.7116399"
         cx="6.7107801"
         class="fil0 str0"
         id="_253110896" /><circle
         style="fill:none;stroke:#1f1a17;stroke-width:0.003"
         r="0.055"
         cy="1.61014"
         cx="7.41078"
         class="fil0 str0"
         id="_187619104" /><circle
         style="fill:none;stroke:#1f1a17;stroke-width:0.003"
         r="0.055"
         cy="1.61014"
         cx="6.7107801"
         class="fil0 str0"
         id="_188380624" /></g><polyline
       style="fill:none;stroke:#1f1a17;stroke-width:0.003"
       points="5.9238,1.21089 5.61078,1.21089 5.61078,2.08541 "
       class="fil0 str0"
       id="_185908856" /><line
       style="fill:none;stroke:#1f1a17;stroke-width:0.003"
       y2="1.2108901"
       x2="6.1797099"
       y1="1.2108901"
       x1="7.9607801"
       class="fil0 str0"
       id="_80328040" /><line
       style="fill:none;stroke:#1f1a17;stroke-width:0.003"
       y2="1.66089"
       x2="8.5107803"
       y1="2.0854101"
       x1="8.5107803"
       class="fil0 str0"
       id="_250018064" /><polyline
       style="fill:none;stroke:#1f1a17;stroke-width:0.003"
       points="8.19776,4.11089 8.51078,4.11089 8.51078,3.23636 "
       class="fil0 str0"
       id="_244872448" /><line
       style="fill:none;stroke:#1f1a17;stroke-width:0.003"
       y2="4.1108899"
       x2="7.9418602"
       y1="4.1108899"
       x1="6.1797099"
       class="fil0 str0"
       id="_80060568" /><polyline
       style="fill:none;stroke:#1f1a17;stroke-width:0.003"
       points="5.61078,3.23635 5.61078,4.11089 5.92381,4.11089 "
       class="fil0 str0"
       id="_178746200" /><polyline
       style="fill:none;stroke:#1f1a17;stroke-width:0.003;stroke-linecap:round;stroke-linejoin:round"
       points="5.61077,2.08541 5.49125,2.08541 5.49125,2.33573 5.61077,2.33573 5.61077,2.98604 "
       class="fil0 str1"
       id="_79314896" /><polyline
       style="fill:none;stroke:#1f1a17;stroke-width:0.003;stroke-linecap:round;stroke-linejoin:round"
       points="5.61077,2.98604 5.49125,2.98604 5.49125,3.23635 5.61077,3.23635 "
       class="fil0 str1"
       id="_176756384" /><polyline
       style="fill:none;stroke:#1f1a17;stroke-width:0.003;stroke-linecap:round;stroke-linejoin:round"
       points="8.51079,2.08541 8.63031,2.08541 8.63031,2.33573 8.51079,2.33573 "
       class="fil0 str1"
       id="_182864912" /><polyline
       style="fill:none;stroke:#1f1a17;stroke-width:0.003;stroke-linecap:round;stroke-linejoin:round"
       points="8.51079,2.98604 8.63031,2.98604 8.63031,3.23635 8.51079,3.23635 "
       class="fil0 str1"
       id="_243319896" /><path
       style="fill:none;stroke:#1f1a17;stroke-width:0.003"
       inkscape:connector-curvature="0"
       d="m 7.96078,1.21089 v 0.4 c 0,0.027539 0.022461,0.050004 0.05,0.050004 l 0.4,-3.9e-6 0.1,-4e-6"
       class="fil0 str0"
       id="_179159280" /><path
       style="fill:none;stroke:#1f1a17;stroke-width:0.003"
       inkscape:connector-curvature="0"
       d="m 6.17971,1.21089 v 0.075 M 5.923801,1.2108939 V 1.26089 m 0,0 v 0.02548 0.02452 c 0,0.027539 0.022461,0.05 0.05,0.05 H 6.12971 c 0.027539,0 0.05,-0.022461 0.05,-0.05 v -0.025"
       class="fil0 str0"
       id="_182099744" /><path
       style="fill:none;stroke:#1f1a17;stroke-width:0.003"
       inkscape:connector-curvature="0"
       d="M 6.17971,4.06089 V 4.03541 4.01089 c 0,-0.027539 -0.022461,-0.05 -0.05,-0.05 H 5.973801 c -0.027539,0 -0.05,0.022461 -0.05,0.05 v 0.025"
       class="fil0 str0"
       id="_241113512" /><line
       style="fill:none;stroke:#1f1a17;stroke-width:0.003"
       y2="4.0608902"
       x2="6.1797099"
       y1="4.1108899"
       x1="6.1797099"
       class="fil0 str0"
       id="_244387808" /><line
       style="fill:none;stroke:#1f1a17;stroke-width:0.003"
       y2="4.0358901"
       x2="5.9238"
       y1="4.1108899"
       x1="5.9238"
       class="fil0 str0"
       id="_189480152" /><path
       style="fill:none;stroke:#1f1a17;stroke-width:0.003"
       inkscape:connector-curvature="0"
       d="M 8.19776,4.06089 V 4.03541 4.01089 c 0,-0.027539 -0.022461,-0.05 -0.05,-0.05 H 7.991851 c -0.027539,0 -0.05,0.022461 -0.05,0.05 v 0.025"
       class="fil0 str0"
       id="_188412904" /><line
       style="fill:none;stroke:#1f1a17;stroke-width:0.003"
       y2="4.0608902"
       x2="8.1977596"
       y1="4.1108899"
       x1="8.1977596"
       class="fil0 str0"
       id="_184256120" /><line
       style="fill:none;stroke:#1f1a17;stroke-width:0.003"
       y2="4.0358901"
       x2="7.9418502"
       y1="4.1108899"
       x1="7.9418502"
       class="fil0 str0"
       id="_237208336" /><line
       style="fill:none;stroke:#1f1a17;stroke-width:0.003"
       y2="2.9860401"
       x2="8.5107899"
       y1="2.3357301"
       x1="8.5107899"
       class="fil0 str0"
       id="_251014448" /></g><path
     style="fill:none;stroke:#1f1a17;stroke-width:0.003;stroke-linecap:round;stroke-linejoin:round"
     inkscape:connector-curvature="0"
     id="path7879"
     d="m 3.42813,3.98657 v 0.13 h -0.25 v -0.13 m 0.25,0 h -0.25"
     class="fil0 str1" /><path
     style="fill:none;stroke:#1f1a17;stroke-width:0.003;stroke-linecap:round;stroke-linejoin:round"
     inkscape:connector-curvature="0"
     id="path7881"
     d="m 4.32813,2.23657 v 0.13 h -0.25 v -0.13 m 0.25,0 h -0.25"
     class="fil0 str1" /><rect
     style="opacity:0;fill:none;stroke:#0000ff;stroke-width:0.00787402;stroke-linecap:round;stroke-linejoin:round;stroke-miterlimit:4;stroke-dasharray:none;stroke-opacity:1"
     id="rect13136"
     width="4.4094486"
     height="4.4094486"
     x="9.6354198"
     y="1.1562504" /><g
     id="g13397"><g
       transform="translate(-0.65416668,0.33551118)"
       id="g13337"><path
         style="fill:none;stroke:#000000;stroke-width:0.00787402;stroke-linecap:butt;stroke-linejoin:miter;stroke-miterlimit:4;stroke-dasharray:none;stroke-opacity:1"
         d="m 9.6227497,2.4419808 v 0.06997"
         id="path13128"
         inkscape:connector-curvature="0" /><path
         style="fill:none;stroke:#000000;stroke-width:0.00787402;stroke-linecap:butt;stroke-linejoin:miter;stroke-miterlimit:4;stroke-dasharray:none;stroke-opacity:1"
         d="m 9.6227497,2.6223308 v 0.06996"
         id="path13130"
         inkscape:connector-curvature="0" /><polyline
         id="_237901128"
         class="fil1 str2"
         points="8.79983,2.71608 8.98804,2.71608 8.98804,2.78901 9.10097,2.78901 9.10097,2.71608 9.19509,2.71608 9.19509,2.6057 9.10097,2.6057 9.10097,2.53278 8.98804,2.53278 8.98804,2.6057 8.79983,2.6057 "
         style="fill:none;fill-rule:nonzero;stroke:#1f1a17;stroke-width:0.00787402;stroke-linecap:round;stroke-linejoin:round;stroke-miterlimit:4;stroke-dasharray:none"
         transform="translate(0.82291667,-0.09375)" /><g
         style="stroke-width:0.00787402;stroke-linejoin:round;stroke-miterlimit:4;stroke-dasharray:none"
         id="g7833"
         transform="translate(0.82291667,-0.09375)"><polyline
           id="_53804992"
           class="fil0 str1"
           points="8.79983,2.28541 8.68031,2.28541 8.68031,2.53573 8.79983,2.53573 "
           style="fill:none;stroke:#1f1a17;stroke-width:0.00787402;stroke-linecap:round;stroke-linejoin:round;stroke-miterlimit:4;stroke-dasharray:none" /><polyline
           id="_241174456"
           class="fil0 str1"
           points="8.79983,2.78604 8.68031,2.78604 8.68031,3.03635 8.79983,3.03635 "
           style="fill:none;stroke:#1f1a17;stroke-width:0.00787402;stroke-linecap:round;stroke-linejoin:round;stroke-miterlimit:4;stroke-dasharray:none" /></g></g><g
       transform="translate(0.1007305,-0.41875)"
       id="g13329"><g
         style="stroke-width:0.00787402;stroke-linejoin:round;stroke-miterlimit:4;stroke-dasharray:none"
         id="g13111"
         transform="translate(0.82291667,-0.09375)"><polyline
           style="fill:none;stroke:#1f1a17;stroke-width:0.00787402;stroke-linecap:round;stroke-linejoin:round;stroke-miterlimit:4;stroke-dasharray:none"
           points="9.87436,1.21089 9.87436,1.09137 10.1247,1.09137 10.1247,1.21089 "
           class="fil0 str1"
           id="_178667952" /><polyline
           style="fill:none;stroke:#1f1a17;stroke-width:0.00787402;stroke-linecap:round;stroke-linejoin:round;stroke-miterlimit:4;stroke-dasharray:none"
           points="10.375,1.21089 10.375,1.09137 10.6253,1.09137 10.6253,1.21089 "
           class="fil0 str1"
           id="_247356128" /><line
           style="fill:none;stroke:#1f1a17;stroke-width:0.00787402;stroke-linecap:round;stroke-linejoin:round;stroke-miterlimit:4;stroke-dasharray:none"
           y2="1.2108901"
           x2="10.305"
           y1="1.2108901"
           x1="10.375"
           class="fil0 str1"
           id="_86424136" /><line
           style="fill:none;stroke:#1f1a17;stroke-width:0.00787402;stroke-linecap:round;stroke-linejoin:round;stroke-miterlimit:4;stroke-dasharray:none"
           y2="1.2108901"
           x2="10.1247"
           y1="1.2108901"
           x1="10.1946"
           class="fil0 str1"
           id="_237210488" /><line
           style="fill:none;stroke:#1f1a17;stroke-width:0.00787402;stroke-linejoin:round;stroke-miterlimit:4;stroke-dasharray:none"
           y2="1.2108901"
           x2="10.305"
           y1="1.2108901"
           x1="10.1946"
           class="fil0 str0"
           id="_179102432" /></g></g><g
       transform="translate(0.1007255,1.090625)"
       id="g13345"><g
         style="stroke-width:0.00787402;stroke-linejoin:round;stroke-miterlimit:4;stroke-dasharray:none"
         id="g13126"
         transform="translate(0.82291667,-0.09375)"><polyline
           style="fill:none;stroke:#1f1a17;stroke-width:0.00787402;stroke-linecap:round;stroke-linejoin:round;stroke-miterlimit:4;stroke-dasharray:none"
           points="10.6253,4.1109 10.6253,4.23042 10.375,4.23042 10.375,4.1109 "
           class="fil0 str1"
           id="_173786856" /><polyline
           style="fill:none;stroke:#1f1a17;stroke-width:0.00787402;stroke-linecap:round;stroke-linejoin:round;stroke-miterlimit:4;stroke-dasharray:none"
           points="10.1247,4.1109 10.1247,4.23042 9.87437,4.23042 9.87437,4.1109 "
           class="fil0 str1"
           id="_188878816" /><line
           style="fill:none;stroke:#1f1a17;stroke-width:0.00787402;stroke-linecap:round;stroke-linejoin:round;stroke-miterlimit:4;stroke-dasharray:none"
           y2="4.1108999"
           x2="10.1946"
           y1="4.1108999"
           x1="10.1247"
           class="fil0 str1"
           id="_240520216" /><line
           style="fill:none;stroke:#1f1a17;stroke-width:0.00787402;stroke-linecap:round;stroke-linejoin:round;stroke-miterlimit:4;stroke-dasharray:none"
           y2="4.1108999"
           x2="10.375"
           y1="4.1108999"
           x1="10.305"
           class="fil0 str1"
           id="_183679280" /><line
           style="fill:none;stroke:#1f1a17;stroke-width:0.00787402;stroke-linejoin:round;stroke-miterlimit:4;stroke-dasharray:none"
           y2="4.1108899"
           x2="10.1946"
           y1="4.1108899"
           x1="10.305"
           class="fil0 str0"
           id="_247289008" /></g></g><g
       transform="translate(0.85625,0.33551118)"
       id="g13354"><g
         style="stroke-width:0.00787402;stroke-linejoin:round;stroke-miterlimit:4;stroke-dasharray:none"
         id="g7838"
         transform="translate(0.82291667,-0.09375)"><g
           style="stroke-width:0.00787402;stroke-linejoin:round;stroke-miterlimit:4;stroke-dasharray:none"
           id="g13119"><polyline
             style="clip-rule:evenodd;fill:none;fill-rule:nonzero;stroke:#1f1a17;stroke-width:0.00787402;stroke-linecap:round;stroke-linejoin:round;stroke-miterlimit:4;stroke-dasharray:none;image-rendering:optimizeQuality;shape-rendering:geometricPrecision;text-rendering:geometricPrecision"
             points="11.6998,2.71608 11.5116,2.71608 11.5116,2.78901 11.3987,2.78901 11.3987,2.71608 11.3046,2.71608 11.3046,2.6057 11.3987,2.6057 11.3987,2.53278 11.5116,2.53278 11.5116,2.6057 11.6998,2.6057 "
             class="fil1 str2"
             id="_186502496" /><polyline
             style="fill:none;stroke:#1f1a17;stroke-width:0.00787402;stroke-linecap:round;stroke-linejoin:round;stroke-miterlimit:4;stroke-dasharray:none"
             points="11.6998,2.28541 11.8194,2.28541 11.8194,2.53573 11.6998,2.53573 "
             class="fil0 str1"
             id="_183738552" /><polyline
             style="fill:none;stroke:#1f1a17;stroke-width:0.00787402;stroke-linecap:round;stroke-linejoin:round;stroke-miterlimit:4;stroke-dasharray:none"
             points="11.6998,2.78604 11.8194,2.78604 11.8194,3.03635 11.6998,3.03635 "
             class="fil0 str1"
             id="_185783816" /></g></g><path
         style="fill:none;stroke:#000000;stroke-width:0.00787402;stroke-linecap:butt;stroke-linejoin:round;stroke-miterlimit:4;stroke-dasharray:none;stroke-opacity:1"
         d="m 12.522721,2.4419808 v 0.06997"
         id="path13132"
         inkscape:connector-curvature="0" /><path
         style="fill:none;stroke:#000000;stroke-width:0.00787402;stroke-linecap:butt;stroke-linejoin:miter;stroke-miterlimit:4;stroke-dasharray:none;stroke-opacity:1"
         d="m 12.522721,2.6223308 v 0.06996"
         id="path13134"
         inkscape:connector-curvature="0" /></g><path
       inkscape:connector-curvature="0"
       id="path13356"
       d="m 13.378971,2.527172 -7.6e-4,-1.82925491 -1.829255,4.7312e-4"
       style="fill:none;stroke:#000000;stroke-width:0.00787402;stroke-linecap:butt;stroke-linejoin:miter;stroke-opacity:1;stroke-miterlimit:4;stroke-dasharray:none" /><path
       inkscape:connector-curvature="0"
       id="path13358"
       d="M 10.798011,0.69839022 8.9687557,0.6979171 8.9685828,2.527172"
       style="fill:none;stroke:#000000;stroke-width:0.00787402;stroke-linecap:butt;stroke-linejoin:miter;stroke-opacity:1;stroke-miterlimit:4;stroke-dasharray:none" /><path
       inkscape:connector-curvature="0"
       id="path13360"
       d="m 8.9685829,3.2781122 1.729e-4,1.8292551 1.8292602,4.093e-4"
       style="fill:none;stroke:#000000;stroke-width:0.00787402;stroke-linecap:butt;stroke-linejoin:miter;stroke-opacity:1;stroke-miterlimit:4;stroke-dasharray:none" /><path
       inkscape:connector-curvature="0"
       id="path13362"
       d="m 11.548945,5.1077766 1.82926,-4.093e-4 7.61e-4,-1.8292551"
       style="fill:none;stroke:#000000;stroke-width:0.00787402;stroke-linecap:butt;stroke-linejoin:miter;stroke-opacity:1;stroke-miterlimit:4;stroke-dasharray:none" /></g></svg>